<?xml version="1.0" encoding="UTF-8"?>
<svg width="40px" height="40px" viewBox="0 0 40 40" version="1.1" xmlns="http://www.w3.org/2000/svg" xmlns:xlink="http://www.w3.org/1999/xlink">
    <title>BEF87E26-079A-44D0-8B8D-DD0F87E783BB</title>
    <g id="Mobile" stroke="none" stroke-width="1" fill="none" fill-rule="evenodd">
        <g id="Landing---New-2" transform="translate(-16.000000, -867.000000)" fill="#07A93F">
            <g id="Features" transform="translate(0.000000, 671.000000)">
                <g transform="translate(-103.000000, 40.000000)" id="Instant-Approval">
                    <g transform="translate(119.000000, 38.000000)">
                        <g id="Group-18" transform="translate(0.000000, 118.000000)">
                            <rect id="Rectangle" opacity="0.100000001" x="0" y="0" width="40" height="40" rx="8"></rect>
                            <g id="stopwatch-(2)" transform="translate(9.000000, 8.000000)" fill-rule="nonzero">
                                <path d="M21.473125,5.2959375 L18.9540625,2.776875 C18.5879219,2.41073438 17.9943437,2.41073438 17.62825,2.776875 C17.2621562,3.14301563 17.2621094,3.73659375 17.62825,4.1026875 L18.224875,4.6993125 L17.0013437,5.92284375 C15.408625,4.594125 13.4720312,3.792 11.40625,3.60529687 L11.40625,1.875 L12.25,1.875 C12.7677812,1.875 13.1875,1.45528125 13.1875,0.9375 C13.1875,0.41971875 12.7677812,0 12.25,0 L8.6875,0 C8.16971875,0 7.75,0.41971875 7.75,0.9375 C7.75,1.45528125 8.16971875,1.875 8.6875,1.875 L9.53125,1.875 L9.53125,3.60529687 C4.3879375,4.07010937 0.25,8.389125 0.25,13.78125 C0.25,19.4288437 4.82035937,24 10.46875,24 C16.1163437,24 20.6875,19.4296406 20.6875,13.78125 C20.6875,11.3666719 19.8551875,9.08034375 18.3271562,7.24865625 L19.5506875,6.025125 L20.1473125,6.62175 C20.5134062,6.98784375 21.1069844,6.98789063 21.473125,6.62175 C21.8392187,6.25565625 21.8392187,5.66207813 21.473125,5.2959375 Z M10.46875,22.125 C5.86801562,22.125 2.125,18.3819844 2.125,13.78125 C2.125,9.18051562 5.86801562,5.4375 10.46875,5.4375 C15.0694844,5.4375 18.8125,9.18051562 18.8125,13.78125 C18.8125,18.3819844 15.0695312,22.125 10.46875,22.125 Z M15.3401406,13.78125 C15.3401406,14.2990313 14.9204219,14.71875 14.4026406,14.71875 L10.4687969,14.71875 C9.95101562,14.71875 9.53129687,14.2990313 9.53129687,13.78125 L9.53129687,8.26523438 C9.53129687,7.74745313 9.95101562,7.32773438 10.4687969,7.32773438 C10.9865781,7.32773438 11.4062969,7.74745313 11.4062969,8.26523438 L11.4062969,12.84375 L14.4026406,12.84375 C14.9204219,12.84375 15.3401406,13.2634688 15.3401406,13.78125 Z" id="Shape"></path>
                            </g>
                        </g>
                    </g>
                </g>
            </g>
        </g>
    </g>
</svg>