<?xml version="1.0" encoding="UTF-8"?>
<svg width="189px" height="228px" viewBox="0 0 189 228" version="1.1" xmlns="http://www.w3.org/2000/svg" xmlns:xlink="http://www.w3.org/1999/xlink">
    <title>C1932DFA-EE2C-4E8E-8600-2657884ACF34</title>
    <defs>
        <path d="M56.6581335,110.048185 L167.224662,73.4953409 C178.437021,69.7885808 190.769654,73.5149569 198.053323,82.8103981 L299.17938,211.867791 C308.717242,224.04004 306.581649,241.639562 294.4094,251.177424 C291.423731,253.516918 287.993853,255.225393 284.327902,256.199175 L112.801557,301.761508 C98.1033237,305.665782 82.9759856,297.123969 78.7278293,282.521416 L38.5615889,144.454534 C34.3520145,129.984601 42.3499402,114.778415 56.6581335,110.048185 Z" id="path-1"></path>
    </defs>
    <g id="Mobile" stroke="none" stroke-width="1" fill="none" fill-rule="evenodd">
        <g id="Landing---New-2" transform="translate(0.000000, -1043.000000)">
            <g id="Features" transform="translate(0.000000, 671.000000)">
                <g transform="translate(-103.000000, 40.000000)" id="Digital-Process">
                    <g transform="translate(0.000000, 237.000000)">
                        <g transform="translate(0.767910, 0.786269)">
                            <g id="Group-10">
                                <mask id="mask-2" fill="white">
                                    <use xlink:href="#path-1"></use>
                                </mask>
                                <use id="Rectangle" fill="#1B1DC7" opacity="0.0599999987" transform="translate(178.195633, 188.050041) scale(-1, -1) rotate(120.000000) translate(-178.195633, -188.050041) " xlink:href="#path-1"></use>
                                <g id="Mike-8" mask="url(#mask-2)">
                                    <g transform="translate(211.000000, 280.000000) scale(-1, 1) translate(-211.000000, -280.000000) translate(105.000000, 121.000000)">
                                        <path d="M41.5002,75.2300593 C43.9912,75.2300593 48.3552,82.5010593 53.6712,85.7570593 C54.7632,83.7450593 51.8442,80.1020593 53.3132,79.5980593 C54.7602,79.1030593 56.8292,83.3570593 60.8112,87.9690593 C61.2412,88.4670593 72.9322,98.0890593 95.8842,116.834059 L100.8522,96.2730593 L128.9072,104.814059 C125.5002,125.762059 116.7392,138.805059 102.6242,143.943059 C83.1012,151.048059 68.1172,116.834059 58.4852,102.760059 C36.5482,93.1470593 39.1832,75.2300593 41.5002,75.2300593" id="Fill-375" fill="#DD9266"></path>
                                        <path d="M125.3288,51.7446593 C119.8268,53.3046593 115.1728,56.9586593 111.3658,62.7056593 C105.6548,71.3276593 98.8168,103.118659 97.6188,104.694659 C96.4198,106.269659 95.1018,107.971659 95.1018,110.133659 C95.1018,111.575659 102.9588,114.518659 118.6718,118.962659 L125.3288,51.7446593 Z" id="Fill-376" fill="#714DB7"></path>
                                        <path d="M112.3298,117.123559 C105.8208,115.181559 101.1568,113.591559 98.3368,112.353559 C103.5538,112.633559 106.5638,112.377559 107.3698,111.586559 C108.3008,110.672559 109.3008,101.928559 110.3708,85.3535593 L112.3298,117.123559 Z" id="Fill-377" fill="#06090E"></path>
                                        <path d="M48.5177338,71.8767029 L36.4860823,74.1326376 C35.4004316,74.3361971 34.6853555,75.3813084 34.888915,76.4669591 C34.9056798,76.5563713 34.9285254,76.6445355 34.9572927,76.7308375 L42.6805225,99.9005268 C42.9965846,100.848713 43.9641089,101.418008 44.9464662,101.233816 L56.9781177,98.977881 C58.0637684,98.7743215 58.7788445,97.7292102 58.575285,96.6435595 C58.5585202,96.5541473 58.5356746,96.4659831 58.5069073,96.3796811 L50.7836775,73.2099918 C50.4676154,72.2618055 49.5000911,71.692511 48.5177338,71.8767029 Z" id="Fill-378" fill="#1E1F20"></path>
                                        <path d="M151.9977,134.825759 C162.5667,167.151759 157.9147,185.479759 138.0417,189.811759 C108.2317,196.308759 107.2317,195.554759 75.2497,191.861759 C72.9287,199.054759 83.4227,212.187759 92.2817,264.853759 L69.2317,279.057759 C35.4647,222.530759 21.8707,185.153759 28.4477,166.929759 C35.0247,148.704759 76.2087,138.003759 151.9977,134.825759" id="Fill-381" fill="#0C121B"></path>
                                        <path d="M38.2028,219.969259 C37.3588,217.986259 36.5618,216.048259 35.8118,214.155259 L50.6488,169.303259 L38.2028,219.969259 Z" id="Fill-382" fill="#06090E"></path>
                                        <path d="M188.4977,146.825759 C199.0667,176.484759 194.4147,193.479759 174.5417,197.811759 C144.7317,204.308759 115.7317,203.554759 83.7497,199.861759 C81.4287,207.054759 83.4507,227.554759 49.4397,293.720759 L22.7317,290.057759 C38.2947,205.190759 52.3547,159.085759 64.9137,151.741759 C77.4717,144.396759 118.6657,142.758759 188.4977,146.825759" id="Fill-386" fill="#0C121B"></path>
                                        <path d="M112.1686,130.928259 C113.2146,127.645259 103.6346,64.7062593 118.0556,55.5742593 C137.8946,43.0122593 161.2516,45.6842593 176.5006,49.8292593 C195.4396,54.9772593 200.3856,129.555259 193.7226,168.820259 C165.5106,173.672259 137.0246,140.407259 107.1276,137.991259 C107.9426,135.368259 110.7086,135.512259 112.1686,130.928259" id="Fill-387" fill="#9F98E6"></path>
                                        <path d="M153.6442,153.233959 C161.2702,158.839959 164.8372,162.399959 164.3472,163.910959 C163.8562,165.421959 159.0172,167.468959 149.8302,170.053959 C162.1972,169.015959 170.8092,166.966959 175.6662,163.910959 L153.6442,153.233959 Z" id="Fill-388" fill="#06090E"></path>
                                        <path d="M109.4889,203.555259 L175.2439,203.555259 C196.1349,188.503259 205.6249,163.837259 203.7129,129.555259 L198.7229,129.555259 C193.2129,150.797259 183.1009,163.130259 168.3869,166.555259 C146.3169,171.693259 130.2279,169.525259 119.5409,176.823259 C112.4159,181.688259 109.0649,190.599259 109.4889,203.555259" id="Fill-389" fill="#C2CFE5"></path>
                                        <path d="M128.7018,50.3735593 C137.6378,57.8575593 152.9308,54.9005593 158.4818,46.4855593 C149.2498,46.0585593 139.7328,46.4245593 128.7018,50.3735593" id="Fill-394" fill="#DD9266"></path>
                                        <polygon id="Fill-395" fill="#DD9266" points="144.0768 28.6245593 152.1658 46.9495593 134.1108 51.6015593 132.4628 38.9925593"></polygon>
                                        <polygon id="Fill-396" fill="#0C121B" points="133.2507 45.0181593 133.9497 50.3701593 142.3857 36.3481593 141.9907 35.8191593"></polygon>
                                        <path d="M147.5837,17.8833593 C144.6757,8.37035929 134.5947,3.02135929 125.0667,5.93335929 C115.8427,8.75335929 109.2367,18.9623593 112.6827,27.1243593 C116.1287,35.2863593 115.4267,33.9183593 116.2217,38.7003593 C117.1027,43.9923593 122.4177,50.4503593 128.1687,49.2873593 C133.9197,48.1243593 145.4937,35.8283593 148.1687,25.8493593 C148.5637,23.2633593 148.3987,20.5513593 147.5837,17.8833593" id="Fill-397" fill="#DD9266"></path>
                                        <path d="M114.4528,31.1128593 C111.9218,30.4838593 108.6978,29.8388593 108.1498,27.2608593 C107.7708,25.4758593 108.9178,23.6678593 108.7088,22.6838593 C108.2358,20.4608593 105.8708,19.4038593 106.0218,17.2518593 C106.1958,14.7908593 108.2758,14.3588593 108.8178,12.9378593 C109.4478,11.2898593 108.8108,9.62785929 110.0928,7.37985929 C111.3748,5.13185929 114.8008,5.42585929 116.3888,4.18985929 C119.0928,2.08485929 119.1198,0.209859291 122.8968,0.014859291 C126.4578,-0.167140709 127.1098,1.37585929 129.3258,1.73985929 C131.5428,2.10385929 134.8528,-0.215140709 137.4358,1.13585929 C139.9318,2.44285929 139.1788,4.41485929 141.2548,5.75685929 C143.1398,6.97485929 145.2138,7.83585929 146.0618,9.02685929 C147.4318,10.9498593 146.1988,12.4688593 146.7498,15.1188593 C146.8908,15.7928593 148.9988,16.8118593 149.4578,18.9718593 C149.7928,20.5448593 149.2438,23.1098593 147.8128,26.6688593 C142.3718,28.5958593 137.1298,24.6138593 132.0858,14.7208593 C123.4188,16.1608593 116.7158,18.2678593 111.9748,21.0438593 C111.9388,24.0208593 112.7658,27.3778593 114.4528,31.1128593" id="Fill-398" fill="#47220C"></path>
                                        <path d="M125.4098,23.5327593 C123.7558,24.3017593 123.2978,24.9767593 123.1198,24.5967593 C122.9418,24.2177593 123.1128,22.9267593 124.7668,22.1577593 C126.4208,21.3877593 129.0918,21.7757593 129.2688,22.1557593 C129.4468,22.5347593 127.0628,22.7627593 125.4098,23.5327593" id="Fill-399" fill="#47220C"></path>
                                        <path d="M115.569,26.5405593 C117.37,26.2535593 118.128,26.5575593 118.063,26.1435593 C117.998,25.7285593 117.133,24.7545593 115.333,25.0415593 C113.532,25.3285593 111.534,27.1445593 111.599,27.5585593 C111.665,27.9725593 113.767,26.8275593 115.569,26.5405593" id="Fill-400" fill="#47220C"></path>
                                        <path d="M125.0905,41.2056593 C123.0105,41.8416593 120.9805,41.2286593 120.8225,40.7166593 C120.6665,40.2046593 122.4445,39.9866593 124.5245,39.3516593 C126.6035,38.7156593 128.1985,37.9016593 128.3555,38.4136593 C128.5115,38.9266593 127.1705,40.5696593 125.0905,41.2056593" id="Fill-401" fill="#FFFFFF"></path>
                                        <path d="M122.8278,37.5552593 C122.8148,37.5552593 122.8028,37.5532593 122.7888,37.5512593 L122.5368,37.5122593 C121.3498,37.3302593 120.4138,37.1862593 120.0828,36.5242593 C119.8268,36.0122593 119.9768,35.2892593 120.5688,34.1802593 C121.4358,32.5542593 120.9718,30.5532593 119.1878,28.2332593 C119.1038,28.1232593 119.1248,27.9662593 119.2338,27.8822593 C119.3428,27.7992593 119.5018,27.8192593 119.5848,27.9282593 C121.4988,30.4182593 121.9778,32.6002593 121.0108,34.4142593 C120.5158,35.3422593 120.3588,35.9572593 120.5298,36.2992593 C120.7458,36.7312593 121.5688,36.8582593 122.6128,37.0182593 L122.8668,37.0572593 C123.0028,37.0782593 123.0968,37.2072593 123.0748,37.3432593 C123.0558,37.4672593 122.9488,37.5552593 122.8278,37.5552593" id="Fill-402" fill="#9B5D39"></path>
                                        <path d="M145.2194,28.9751593 C142.9394,29.6721593 140.5284,28.4011593 139.8354,26.1351593 C139.1424,23.8701593 140.4304,21.4671593 142.7114,20.7701593 C144.9924,20.0731593 147.4034,21.3441593 148.0964,23.6101593 C148.7884,25.8751593 147.5004,28.2771593 145.2194,28.9751593" id="Fill-403" fill="#DD9266"></path>
                                        <path d="M126.9909,26.5659593 C126.3869,26.7509593 126.0479,27.3889593 126.2309,27.9919593 C126.4159,28.5939593 127.0539,28.9339593 127.6589,28.7499593 C128.2619,28.5649593 128.6019,27.9259593 128.4189,27.3229593 C128.2339,26.7199593 127.5949,26.3809593 126.9909,26.5659593" id="Fill-404" fill="#47220C"></path>
                                        <path d="M116.5436,29.7602593 C115.9396,29.9452593 115.5996,30.5822593 115.7836,31.1862593 C115.9686,31.7882593 116.6066,32.1272593 117.2106,31.9432593 C117.8146,31.7582593 118.1546,31.1202593 117.9706,30.5172593 C117.7866,29.9142593 117.1476,29.5752593 116.5436,29.7602593" id="Fill-405" fill="#47220C"></path>
                                        <path d="M209.3844,101.043459 C209.8394,107.272459 213.6324,111.065459 209.8224,116.739459 C206.0144,122.413459 179.2614,120.832459 160.0714,117.195459 C146.3734,107.532459 156.8954,75.5774593 162.5764,59.3174593 C166.7514,47.3694593 174.7204,45.9494593 191.0114,57.4434593 C208.7054,69.9274593 208.6114,90.4684593 209.3844,101.043459" id="Fill-406" fill="#714DB7"></path>
                                        <path d="M177.0817,92.0083593 C172.4417,112.104359 169.2667,122.588359 167.5557,123.459359 C165.8447,124.330359 158.0557,122.296359 144.1887,117.358359 L170.2477,130.643359 L177.0817,92.0083593 Z" id="Fill-407" fill="#06090E"></path>
                                        <path d="M95.2507,111.253459 C82.7597,105.067459 80.2697,101.534459 79.7547,98.0574593 C79.3077,95.0374593 79.7397,91.5974593 81.4947,90.3624593 C82.0977,89.9384593 77.3957,84.6804593 77.7897,84.3194593 C79.3167,82.9214593 92.8687,95.2114593 93.1317,94.4894593 C93.3947,93.7694593 92.1407,87.8694593 94.0977,88.5814593 C95.3877,89.0514593 98.0257,92.8144593 102.0147,99.8704593 L169.7227,127.714459 C170.4877,124.072459 171.4417,120.166459 172.5827,115.996459 L206.5587,118.690459 C199.4157,151.678459 189.8617,167.165459 177.9027,165.149459 C165.4797,163.055459 137.9287,145.089459 95.2507,111.253459" id="Fill-408" fill="#DD9266"></path>
                                    </g>
                                </g>
                            </g>
                            <g id="Mike-8" transform="translate(194.232090, 204.213731) scale(-1, 1) translate(-194.232090, -204.213731) translate(105.232090, 121.213731)">
                                <path d="M7.5002,75.2300593 C9.9912,75.2300593 14.3552,82.5010593 19.6712,85.7570593 C20.7632,83.7450593 17.8442,80.1020593 19.3132,79.5980593 C20.7602,79.1030593 22.8292,83.3570593 26.8112,87.9690593 C27.2412,88.4670593 38.9322,98.0890593 61.8842,116.834059 L66.8522,96.2730593 L94.9072,104.814059 C91.5002,125.762059 82.7392,138.805059 68.6242,143.943059 C49.1012,151.048059 34.1172,116.834059 24.4852,102.760059 C2.5482,93.1470593 5.1832,75.2300593 7.5002,75.2300593" id="Fill-375" fill="#F3A483"></path>
                                <path d="M91.3288,51.7446593 C85.8268,53.3046593 81.1728,56.9586593 77.3658,62.7056593 C71.6548,71.3276593 64.8168,103.118659 63.6188,104.694659 C62.4198,106.269659 61.1018,107.971659 61.1018,110.133659 C61.1018,111.575659 68.9588,114.518659 84.6718,118.962659 L91.3288,51.7446593 Z" id="Fill-376" fill="#9F98E6"></path>
                                <path d="M78.3298,117.123559 C71.8208,115.181559 67.1568,113.591559 64.3368,112.353559 C69.5538,112.633559 72.5638,112.377559 73.3698,111.586559 C74.3008,110.672559 75.3008,101.928559 76.3708,85.3535593 L78.3298,117.123559 Z" id="Fill-377" fill="#06090E"></path>
                                <path d="M14.5177338,71.8767029 L2.48608227,74.1326376 C1.40043163,74.3361971 0.685355471,75.3813084 0.888914966,76.4669591 C0.905679755,76.5563713 0.928525398,76.6445355 0.957292743,76.7308375 L8.6805225,99.9005268 C8.99658461,100.848713 9.96410887,101.418008 10.9464662,101.233816 L22.9781177,98.977881 C24.0637684,98.7743215 24.7788445,97.7292102 24.575285,96.6435595 C24.5585202,96.5541473 24.5356746,96.4659831 24.5069073,96.3796811 L16.7836775,73.2099918 C16.4676154,72.2618055 15.5000911,71.692511 14.5177338,71.8767029 Z" id="Fill-378" fill="#1E1F20"></path>
                                <path d="M84.0556,55.5742593 C103.8946,43.0122593 127.2516,45.6842593 142.5006,49.8292593 C156.863879,53.7334866 163.178862,97.5714806 162.485459,135.653923 C162.264562,147.785876 151.067103,161.430229 136.85842,165.737039 C117.867589,158.416348 98.0569027,142.459367 78.1174476,138.672586 C76.4549267,138.35685 106.116771,128.063773 86.1791467,123.000745 C66.2415218,117.937717 77.3503609,117.166981 77.3000354,116.527286 C75.7244654,96.4999582 73.6902546,62.1380437 84.0556,55.5742593 Z" id="Fill-387" fill="#9F98E6"></path>
                                <path d="M94.7018,50.3735593 C103.6378,57.8575593 118.9308,54.9005593 124.4818,46.4855593 C115.2498,46.0585593 105.7328,46.4245593 94.7018,50.3735593" id="Fill-394" fill="#F3A483"></path>
                                <polygon id="Fill-395" fill="#F3A483" points="110.0768 28.6245593 118.1658 46.9495593 100.1108 51.6015593 98.4628 38.9925593"></polygon>
                                <polygon id="Fill-396" fill="#0C121B" points="99.2507 45.0181593 99.9497 50.3701593 108.3857 36.3481593 107.9907 35.8191593"></polygon>
                                <path d="M113.5837,17.8833593 C110.6757,8.37035929 100.5947,3.02135929 91.0667,5.93335929 C81.8427,8.75335929 75.2367,18.9623593 78.6827,27.1243593 C82.1287,35.2863593 81.4267,33.9183593 82.2217,38.7003593 C83.1027,43.9923593 88.4177,50.4503593 94.1687,49.2873593 C99.9197,48.1243593 111.4937,35.8283593 114.1687,25.8493593 C114.5637,23.2633593 114.3987,20.5513593 113.5837,17.8833593" id="Fill-397" fill="#F3A483"></path>
                                <path d="M80.4528,31.1128593 C77.9218,30.4838593 74.6978,29.8388593 74.1498,27.2608593 C73.7708,25.4758593 74.9178,23.6678593 74.7088,22.6838593 C74.2358,20.4608593 71.8708,19.4038593 72.0218,17.2518593 C72.1958,14.7908593 74.2758,14.3588593 74.8178,12.9378593 C75.4478,11.2898593 74.8108,9.62785929 76.0928,7.37985929 C77.3748,5.13185929 80.8008,5.42585929 82.3888,4.18985929 C85.0928,2.08485929 85.1198,0.209859291 88.8968,0.014859291 C92.4578,-0.167140709 93.1098,1.37585929 95.3258,1.73985929 C97.5428,2.10385929 100.8528,-0.215140709 103.4358,1.13585929 C105.9318,2.44285929 105.1788,4.41485929 107.2548,5.75685929 C109.1398,6.97485929 111.2138,7.83585929 112.0618,9.02685929 C113.4318,10.9498593 112.1988,12.4688593 112.7498,15.1188593 C112.8908,15.7928593 114.9988,16.8118593 115.4578,18.9718593 C115.7928,20.5448593 115.2438,23.1098593 113.8128,26.6688593 C108.3718,28.5958593 103.1298,24.6138593 98.0858,14.7208593 C89.4188,16.1608593 82.7158,18.2678593 77.9748,21.0438593 C77.9388,24.0208593 78.7658,27.3778593 80.4528,31.1128593" id="Fill-398" fill="#27282A"></path>
                                <path d="M91.4098,23.5327593 C89.7558,24.3017593 89.2978,24.9767593 89.1198,24.5967593 C88.9418,24.2177593 89.1128,22.9267593 90.7668,22.1577593 C92.4208,21.3877593 95.0918,21.7757593 95.2688,22.1557593 C95.4468,22.5347593 93.0628,22.7627593 91.4098,23.5327593" id="Fill-399" fill="#47220C"></path>
                                <path d="M81.569,26.5405593 C83.37,26.2535593 84.128,26.5575593 84.063,26.1435593 C83.998,25.7285593 83.133,24.7545593 81.333,25.0415593 C79.532,25.3285593 77.534,27.1445593 77.599,27.5585593 C77.665,27.9725593 79.767,26.8275593 81.569,26.5405593" id="Fill-400" fill="#47220C"></path>
                                <path d="M91.0905,41.2056593 C89.0105,41.8416593 86.9805,41.2286593 86.8225,40.7166593 C86.6665,40.2046593 88.4445,39.9866593 90.5245,39.3516593 C92.6035,38.7156593 94.1985,37.9016593 94.3555,38.4136593 C94.5115,38.9266593 93.1705,40.5696593 91.0905,41.2056593" id="Fill-401" fill="#FFFFFF"></path>
                                <path d="M88.8278,37.5552593 C88.8148,37.5552593 88.8028,37.5532593 88.7888,37.5512593 L88.5368,37.5122593 C87.3498,37.3302593 86.4138,37.1862593 86.0828,36.5242593 C85.8268,36.0122593 85.9768,35.2892593 86.5688,34.1802593 C87.4358,32.5542593 86.9718,30.5532593 85.1878,28.2332593 C85.1038,28.1232593 85.1248,27.9662593 85.2338,27.8822593 C85.3428,27.7992593 85.5018,27.8192593 85.5848,27.9282593 C87.4988,30.4182593 87.9778,32.6002593 87.0108,34.4142593 C86.5158,35.3422593 86.3588,35.9572593 86.5298,36.2992593 C86.7458,36.7312593 87.5688,36.8582593 88.6128,37.0182593 L88.8668,37.0572593 C89.0028,37.0782593 89.0968,37.2072593 89.0748,37.3432593 C89.0558,37.4672593 88.9488,37.5552593 88.8278,37.5552593" id="Fill-402" fill="#9B5D39"></path>
                                <path d="M111.2194,28.9751593 C108.9394,29.6721593 106.5284,28.4011593 105.8354,26.1351593 C105.1424,23.8701593 106.4304,21.4671593 108.7114,20.7701593 C110.9924,20.0731593 113.4034,21.3441593 114.0964,23.6101593 C114.7884,25.8751593 113.5004,28.2771593 111.2194,28.9751593" id="Fill-403" fill="#F3A483"></path>
                                <path d="M92.9909,26.5659593 C92.3869,26.7509593 92.0479,27.3889593 92.2309,27.9919593 C92.4159,28.5939593 93.0539,28.9339593 93.6589,28.7499593 C94.2619,28.5649593 94.6019,27.9259593 94.4189,27.3229593 C94.2339,26.7199593 93.5949,26.3809593 92.9909,26.5659593" id="Fill-404" fill="#47220C"></path>
                                <path d="M82.5436,29.7602593 C81.9396,29.9452593 81.5996,30.5822593 81.7836,31.1862593 C81.9686,31.7882593 82.6066,32.1272593 83.2106,31.9432593 C83.8146,31.7582593 84.1546,31.1202593 83.9706,30.5172593 C83.7866,29.9142593 83.1476,29.5752593 82.5436,29.7602593" id="Fill-405" fill="#47220C"></path>
                                <path d="M175.3844,101.043459 C175.8394,107.272459 179.6324,111.065459 175.8224,116.739459 C172.0144,122.413459 145.2614,120.832459 126.0714,117.195459 C112.3734,107.532459 122.8954,75.5774593 128.5764,59.3174593 C132.7514,47.3694593 140.7204,45.9494593 157.0114,57.4434593 C174.7054,69.9274593 174.6114,90.4684593 175.3844,101.043459" id="Fill-406" fill="#9F98E6"></path>
                                <path d="M143.0817,92.0083593 C138.4417,112.104359 135.2667,122.588359 133.5557,123.459359 C131.8447,124.330359 124.0557,122.296359 110.1887,117.358359 L136.2477,130.643359 L143.0817,92.0083593 Z" id="Fill-407" fill="#06090E"></path>
                                <path d="M61.2507,111.253459 C48.7597,105.067459 46.2697,101.534459 45.7547,98.0574593 C45.3077,95.0374593 45.7397,91.5974593 47.4947,90.3624593 C48.0977,89.9384593 43.3957,84.6804593 43.7897,84.3194593 C45.3167,82.9214593 58.8687,95.2114593 59.1317,94.4894593 C59.3947,93.7694593 58.1407,87.8694593 60.0977,88.5814593 C61.3877,89.0514593 64.0257,92.8144593 68.0147,99.8704593 L135.7227,127.714459 C136.4877,124.072459 137.4417,120.166459 138.5827,115.996459 L172.5587,118.690459 C165.4157,151.678459 155.8617,167.165459 143.9027,165.149459 C131.4797,163.055459 103.9287,145.089459 61.2507,111.253459" id="Fill-408" fill="#F3A483"></path>
                            </g>
                        </g>
                    </g>
                </g>
            </g>
        </g>
    </g>
</svg>