<?xml version="1.0" encoding="UTF-8"?>
<svg width="40px" height="40px" viewBox="0 0 40 40" version="1.1" xmlns="http://www.w3.org/2000/svg" xmlns:xlink="http://www.w3.org/1999/xlink">
    <title>82518B77-AAB2-4C03-B12B-E46D758576ED</title>
    <g id="Mobile" stroke="none" stroke-width="1" fill="none" fill-rule="evenodd">
        <g id="Landing---New-2" transform="translate(-304.000000, -1135.000000)" fill="#FFA818">
            <g id="Features" transform="translate(0.000000, 671.000000)">
                <g transform="translate(-103.000000, 40.000000)" id="Digital-Process">
                    <g transform="translate(0.000000, 237.000000)">
                        <g id="Group-12" transform="translate(407.000000, 187.000000)">
                            <rect id="Rectangle" opacity="0.100000001" x="0" y="0" width="40" height="40" rx="8"></rect>
                            <g id="iphone" transform="translate(11.560000, 8.000000)">
                                <path d="M14.0625,0 C13.5352969,0 3.17142188,0 2.8125,0 C1.2616875,0 0,1.2616875 0,2.8125 L0,21.1875 C0,22.7383125 1.2616875,24 2.8125,24 L14.0625,24 C15.6133125,24 16.875,22.7383125 16.875,21.1875 L16.875,2.8125 C16.875,1.2616875 15.6133125,0 14.0625,0 Z M15,21.1875 C15,21.7044375 14.5794375,22.125 14.0625,22.125 L2.8125,22.125 C2.2955625,22.125 1.875,21.7044375 1.875,21.1875 L1.875,2.8125 C1.875,2.2955625 2.2955625,1.875 2.8125,1.875 L4.48260937,1.875 L4.67789062,2.45526563 C4.80623437,2.83678125 5.16389063,3.09375 5.56640625,3.09375 L11.3085938,3.09375 C11.7111094,3.09375 12.0687656,2.83678125 12.1971094,2.45526563 L12.3923906,1.875 L14.0625,1.875 C14.5794375,1.875 15,2.2955625 15,2.8125 L15,21.1875 Z" id="Shape" fill-rule="nonzero"></path>
                                <rect id="Rectangle" x="4" y="17" width="1.6" height="1.6" rx="0.8"></rect>
                                <rect id="Rectangle" x="7" y="17" width="5.6" height="1.6" rx="0.8"></rect>
                                <g id="user-(5)" transform="translate(4.000000, 5.000000)" fill-rule="nonzero">
                                    <path d="M4.44444444,4.4037037 C3.42314815,4.4037037 2.59259259,3.57314815 2.59259259,2.55185185 C2.59259259,1.53055556 3.42314815,0.7 4.44444444,0.7 C5.46574074,0.7 6.2962963,1.53055556 6.2962963,2.55185185 C6.2962963,3.57314815 5.46574074,4.4037037 4.44444444,4.4037037 Z" id="Path"></path>
                                    <path d="M7.4537037,9.07407407 L1.43518519,9.07407407 C1.05185185,9.07407407 0.740740741,8.76296296 0.740740741,8.37962963 L0.740740741,7.4537037 C0.740740741,6.04907407 1.88240741,4.90740741 3.28703704,4.90740741 L5.60185185,4.90740741 C7.00648148,4.90740741 8.14814815,6.04907407 8.14814815,7.4537037 L8.14814815,8.37962963 C8.14814815,8.76296296 7.83703704,9.07407407 7.4537037,9.07407407 Z" id="Path"></path>
                                </g>
                            </g>
                        </g>
                    </g>
                </g>
            </g>
        </g>
    </g>
</svg>