<?xml version="1.0" encoding="UTF-8"?>
<svg width="168px" height="216px" viewBox="0 0 168 216" version="1.1" xmlns="http://www.w3.org/2000/svg" xmlns:xlink="http://www.w3.org/1999/xlink">
    <title>6AE59642-1DE6-4CCE-962B-964B2D08D0EE</title>
    <defs>
        <path d="M59.767012,2.78630373 L184.498978,7.66257242 C198.725391,8.21873949 210.269483,19.3620885 211.327727,33.559985 L219.609115,144.666919 C220.63156,158.384506 211.538386,170.813108 198.154815,173.990781 L39.7046891,211.611728 C24.6589906,215.18404 9.56611039,205.883024 5.99379754,190.837325 C5.1345226,187.218272 5.00495071,183.464281 5.61264913,179.794594 L31.0494208,26.1904445 C33.355254,12.2662901 45.6639995,2.23496087 59.767012,2.78630373 Z" id="path-1"></path>
    </defs>
    <g id="Mobile" stroke="none" stroke-width="1" fill="none" fill-rule="evenodd">
        <g id="Landing---New-2" transform="translate(-192.000000, -1310.000000)">
            <g id="Features" transform="translate(0.000000, 671.000000)">
                <g transform="translate(-103.000000, 40.000000)" id="Eligible-for-Life">
                    <g transform="translate(119.000000, 593.000000)">
                        <g id="eligibility" transform="translate(167.000000, 0.000000)">
                            <mask id="mask-2" fill="white">
                                <use xlink:href="#path-1"></use>
                            </mask>
                            <use id="Rectangle" fill="#1B1DC7" opacity="0.0599999987" transform="translate(110.058247, 111.580551) rotate(90.000000) translate(-110.058247, -111.580551) " xlink:href="#path-1"></use>
                            <g id="Mike-10" mask="url(#mask-2)">
                                <g transform="translate(-42.000000, 36.000000)">
                                    <polygon id="Fill-442" fill="#DD9266" points="136.193 87.4962007 122.443 133.778201 143.512 149.778201 156.431 97.3842007"></polygon>
                                    <path d="M125.8083,188.520601 C137.0483,223.086601 141.1533,233.363601 156.0043,286.176601 L131.4563,295.579601 C97.6903,243.400601 86.8323,206.639601 98.8843,185.296601 C108.1323,172.953601 118.7463,169.090601 125.8083,188.520601" id="Fill-445" fill="#0C121B"></path>
                                    <path d="M219.1969,151.049001 C229.3529,177.684001 224.7009,194.679001 205.2409,202.035001 C176.0509,213.069001 142.4259,202.035001 111.4499,194.085001 C101.3879,198.532001 108.2729,218.454001 52.1389,282.944001 L28.4309,274.281001 C63.7639,192.126001 86.1579,149.354001 95.6119,145.965001 C105.0659,142.575001 146.2609,144.269964 219.1969,151.049001" id="Fill-449" fill="#0C121B"></path>
                                    <path d="M143.8678,136.427901 C144.9138,133.145901 134.4388,69.2489007 148.7548,59.7979007 C169.0388,46.4059007 191.9508,49.9069007 207.1998,54.0529007 C226.1388,59.1999007 231.0848,133.778901 224.4218,173.042901 C196.2098,177.895901 188.0908,144.778901 139.8268,145.490901 C140.6418,142.868901 142.4078,141.011901 143.8678,136.427901" id="Fill-450" fill="#9F98E6"></path>
                                    <path d="M202.8278,135.440601 C211.8938,144.754601 216.4278,150.867601 216.4278,153.778601 C216.4278,156.689601 213.0188,162.356601 206.2028,170.778601 L227.2348,152.214601 L202.8278,135.440601 Z" id="Fill-451" fill="#06090E"></path>
                                    <path d="M156.028,55.9679007 C150.526,57.5279007 145.872,61.1819007 142.065,66.9289007 C136.354,75.5509007 129.516,107.341901 128.318,108.917901 C127.119,110.492901 125.801,112.194901 125.801,114.356901 C125.801,115.798901 133.658,118.740901 149.371,123.185901 L156.028,55.9679007 Z" id="Fill-452" fill="#9F98E6"></path>
                                    <path d="M143.029,121.346801 C136.761,119.476801 132.204,117.932801 129.357,116.715801 C135.527,117.305801 141.016,98.0888007 140.915,81.1168007 L143.029,121.346801 Z" id="Fill-453" fill="#06090E"></path>
                                    <path d="M138.9313,60.7785007 C137.2743,60.7785007 135.9313,59.4355007 135.9313,57.7785007 C135.9313,56.1215007 137.2743,54.7785007 138.9313,54.7785007 L138.9313,60.7785007 Z M138.9313,50.7785007 L138.9313,52.7785007 C136.1693,52.7785007 133.9313,55.0165007 133.9313,57.7785007 C133.9313,60.5405007 136.1693,62.7785007 138.9313,62.7785007 L138.9313,65.7785007 C138.9313,67.9875007 140.7223,69.7785007 142.9313,69.7785007 L152.9313,69.7785007 C155.1403,69.7785007 156.9313,67.9875007 156.9313,65.7785007 L156.9313,50.7785007 L138.9313,50.7785007 Z" id="Fill-454" fill="#B1C6E6"></path>
                                    <path d="M113.5329,131.906401 C114.5599,143.000401 123.6129,155.362401 138.2279,146.629401 C152.8429,137.895401 132.3549,73.2544007 132.6009,69.2624007 C132.8469,65.2714007 147.3519,58.6014007 147.329925,55.5014007 C147.3079,52.4004007 137.9029,53.4354007 129.9719,57.5164007 C122.0429,61.5964007 110.7779,101.246401 113.5329,131.906401" id="Fill-455" fill="#F3A483"></path>
                                    <path d="M140.1881,207.778501 L205.9431,207.778501 C226.8341,192.726501 236.3241,168.060501 234.4121,133.778501 L229.4221,133.778501 C223.9121,155.019501 213.8001,167.353501 199.0861,170.778501 C177.0161,175.916501 160.9271,173.748501 150.2401,181.046501 C143.1151,185.911501 139.7641,194.821501 140.1881,207.778501" id="Fill-456" fill="#C2CFE5"></path>
                                    <polygon id="Fill-461" fill="#C2CFE5" points="10 158 162 158 162 150 10 150"></polygon>
                                    <polygon id="Fill-464" fill="#E9EEF7" points="137.4313 157.778501 144.4313 157.778501 171.4313 321.778501 167.4313 321.778501"></polygon>
                                    <polygon id="Fill-465" fill="#0C121B" points="137.4313 157.778501 144.4313 157.778501 145.5833 164.778501 138.7113 164.778501"></polygon>
                                    <path d="M125.54554,145 L116.98654,90.229 C116.60754,87.794 114.51054,86 112.04754,86 L26.0005397,86 C25.7935397,86 25.5875397,86.016 25.3825397,86.048 C23.1995397,86.389 21.7075397,88.435 22.0485397,90.617 L31.3265397,150 L126.32654,150 L143.32654,150 C146.08854,150 148.32654,147.762 148.32654,145 L125.54554,145 Z" id="Fill-466" fill="#333B47"></path>
                                    <path d="M241.9694,92.9767007 C244.5284,98.6747007 249.3884,100.941701 247.7494,107.576701 C246.1114,114.209701 220.4314,121.873701 201.1554,125.021701 C184.9784,120.624701 181.5414,80.4207007 181.3194,63.1997007 C181.1564,50.5427007 188.8424,48.3627007 208.0814,53.5917007 C228.9794,59.2707007 237.6254,83.3037007 241.9694,92.9767007" id="Fill-467" fill="#9F98E6"></path>
                                    <path d="M212.6432,122.164201 L244.8082,111.196201 C249.8702,139.584201 247.5472,155.111201 237.8432,157.778201 C228.1392,160.445201 219.7392,148.573201 212.6432,122.164201" id="Fill-468" fill="#DD9266"></path>
                                    <path d="M230.027,127.273601 C224.607,120.826601 221.629,116.627601 221.091,114.679601 C220.553,112.731601 216.982,101.070601 210.379,79.6966007 C215.757,101.528601 217.949,112.695601 216.953,113.196601 C215.958,113.696601 211.249,111.889601 202.828,107.773601 L230.027,127.273601 Z" id="Fill-469" fill="#06090E"></path>
                                    <path d="M220.3776,156.741301 C207.1586,147.162301 192.3556,130.009301 175.9666,105.283301 C171.7526,105.200301 168.5616,104.981301 166.3916,104.625301 C163.1356,104.090301 162.8706,100.879301 161.0476,100.489301 C159.1486,100.083301 151.4746,101.490301 151.4746,100.489301 C151.4746,98.7533007 169.3496,92.8083007 173.7016,92.8083007 C178.0546,92.8083007 225.4216,120.508301 244.3736,136.833301 C248.5706,153.382301 240.2066,171.109301 220.3776,156.741301" id="Fill-470" fill="#F3A483"></path>
                                    <path d="M159.151,53.8771007 C167.955,61.5171007 183.547,59.2891007 189.246,50.9731007 C180.022,50.3841007 169.365,50.9871007 159.151,53.8771007" id="Fill-471" fill="#F3A483"></path>
                                    <polygon id="Fill-472" fill="#F3A483" points="181.3141 32.1007007 185.4171 51.7067007 166.3911 57.5027007 167.7981 39.8277007"></polygon>
                                    <polygon id="Fill-473" fill="#0C121B" points="167.3161 45.8859007 166.8871 51.2649007 178.0541 39.3039007 177.7781 38.7039007"></polygon>
                                    <path d="M186.9772,22.3224007 C186.1112,12.4144007 177.3622,5.08540071 167.4382,5.95340071 C157.8292,6.79440071 149.2452,15.4054007 150.9172,24.1064007 C152.5912,32.8064007 152.1892,31.3224007 151.9732,36.1654007 C151.7342,41.5244007 155.5902,48.9474007 161.4572,49.0056528 C167.3252,49.0624007 181.2032,39.4414007 185.8932,30.2364007 C186.8182,27.7894007 187.2202,25.1014007 186.9772,22.3224007" id="Fill-474" fill="#F3A483"></path>
                                    <path d="M151.9059,28.9083007 C149.5609,27.7673007 146.3359,26.3353007 146.3359,23.7003007 C146.3359,21.8753007 147.8349,20.3453007 147.8349,19.3393007 C147.8349,17.0653007 145.7399,15.5413007 146.3359,13.4673007 C147.0169,11.0963007 149.1409,11.1053007 149.9679,9.82930071 C150.9259,8.34630071 150.6479,6.58930071 152.3699,4.65730071 C154.0909,2.72430071 157.3809,3.72430071 159.1909,2.84630071 C162.2739,1.34830071 162.6899,-0.479699286 166.4259,0.115300714 C169.9459,0.677300714 170.2629,2.32130071 172.3549,3.13830071 C174.4479,3.95630071 178.1679,2.37530071 180.4139,4.23530071 C182.5839,6.03230071 181.4359,7.80430071 183.1869,9.54830071 C184.7789,11.1323007 186.6289,12.4043007 187.2109,13.7463007 C188.1499,15.9123007 186.6289,17.1423007 186.6169,19.8483007 C186.6139,20.5363007 188.4649,21.9723007 188.4649,24.1803007 C188.4649,25.7883007 187.3949,28.1833007 185.2559,31.3663007 C179.5329,32.1213007 175.2319,27.1363007 172.3549,16.4103007 C163.5789,16.0163007 156.5839,16.6843007 151.3709,18.4143007 C151.0249,21.1843007 151.2039,24.6823007 151.9059,28.9083007" id="Fill-475" fill="#27282A"></path>
                                    <path d="M164.1139,23.2384007 C162.3369,23.6474007 161.7479,24.2134007 161.6529,23.8044007 C161.5579,23.3954007 161.9939,22.1684007 163.7709,21.7594007 C165.5489,21.3514007 168.0809,22.2864007 168.1759,22.6944007 C168.2699,23.1024007 165.8909,22.8304007 164.1139,23.2384007" id="Fill-476" fill="#47220C"></path>
                                    <path d="M153.8629,24.1359007 C155.6839,24.2299007 156.3619,24.6839007 156.3839,24.2649007 C156.4069,23.8469007 155.7649,22.7129007 153.9429,22.6189007 C152.1219,22.5259007 149.7909,23.8859007 149.7679,24.3049007 C149.7459,24.7229007 152.0409,24.0419007 153.8629,24.1359007" id="Fill-477" fill="#47220C"></path>
                                    <path d="M160.1276,40.4591007 C157.9606,40.6481007 156.1016,39.6271007 156.0556,39.0941007 C156.0086,38.5611007 157.7916,38.7171007 159.9586,38.5271007 C162.1246,38.3381007 163.8546,37.8741007 163.9006,38.4071007 C163.9476,38.9401007 162.2946,40.2701007 160.1276,40.4591007" id="Fill-478" fill="#FFFFFF"></path>
                                    <path d="M158.7252,36.4230007 C158.6962,36.4230007 158.6652,36.4170007 158.6362,36.4060007 L158.3972,36.3160007 C157.2752,35.8910007 156.3882,35.5550007 156.2022,34.8390007 C156.0582,34.2860007 156.3552,33.6100007 157.1642,32.6480007 C158.3512,31.2370007 158.3132,29.1830007 157.0512,26.5430007 C156.9922,26.4190007 157.0442,26.2690007 157.1692,26.2100007 C157.2922,26.1520007 157.4442,26.2020007 157.5022,26.3270007 C158.8562,29.1610007 158.8712,31.3960007 157.5472,32.9700007 C156.8712,33.7730007 156.5892,34.3430007 156.6862,34.7120007 C156.8072,35.1790007 157.5862,35.4740007 158.5742,35.8490007 L158.8142,35.9400007 C158.9432,35.9880007 159.0082,36.1330007 158.9582,36.2620007 C158.9202,36.3620007 158.8262,36.4230007 158.7252,36.4230007" id="Fill-479" fill="#9B5D39"></path>
                                    <path d="M182.36,32.6808007 C179.983,32.8888007 177.889,31.1438007 177.683,28.7848007 C177.476,26.4238007 179.236,24.3418007 181.612,24.1338007 C183.988,23.9258007 186.082,25.6708007 186.289,28.0318007 C186.495,30.3908007 184.736,32.4728007 182.36,32.6808007" id="Fill-480" fill="#F3A483"></path>
                                    <path d="M165.0299,26.5343007 C164.4009,26.5903007 163.9359,27.1433007 163.9909,27.7713007 C164.0459,28.3993007 164.5999,28.8643007 165.2289,28.8083007 C165.8579,28.7543007 166.3239,28.2003007 166.2679,27.5723007 C166.2139,26.9443007 165.6589,26.4793007 165.0299,26.5343007" id="Fill-481" fill="#47220C"></path>
                                    <path d="M154.1471,27.4865007 C153.5181,27.5425007 153.0521,28.0955007 153.1071,28.7235007 C153.1631,29.3515007 153.7161,29.8165007 154.3451,29.7605007 C154.9751,29.7065007 155.4401,29.1525007 155.3851,28.5245007 C155.3311,27.8965007 154.7761,27.4315007 154.1471,27.4865007" id="Fill-482" fill="#47220C"></path>
                                </g>
                            </g>
                        </g>
                    </g>
                </g>
            </g>
        </g>
    </g>
</svg>