<?xml version="1.0" encoding="UTF-8"?>
<svg width="186px" height="208px" viewBox="0 0 186 208" version="1.1" xmlns="http://www.w3.org/2000/svg" xmlns:xlink="http://www.w3.org/1999/xlink">
    <title>8451CCE8-8E18-4504-BCBE-2D1B20FFC332</title>
    <defs>
        <path d="M92.3072379,33.2614392 L187.843864,38.0906565 C199.603243,38.6850736 209.734395,46.5727505 213.194218,57.8273477 L246.890508,167.439342 C251.434489,182.220638 243.135506,197.88687 228.354211,202.430851 C227.866456,202.580793 227.374694,202.717374 226.879474,202.840441 L72.3351829,241.246153 C57.3276767,244.97566 42.1383267,235.833035 38.40882,220.825529 C37.487947,217.119943 37.3347062,213.265165 37.9585184,209.498173 L63.2698939,56.6512488 C65.5956706,42.6066621 78.0895324,32.5427579 92.3072379,33.2614392 Z" id="path-1"></path>
    </defs>
    <g id="Mobile" stroke="none" stroke-width="1" fill="none" fill-rule="evenodd">
        <g id="Landing---New-2" transform="translate(-174.000000, -805.000000)">
            <g id="Features" transform="translate(0.000000, 671.000000)">
                <g transform="translate(-103.000000, 40.000000)" id="Instant-Approval">
                    <g transform="translate(119.000000, 38.000000)">
                        <g id="Group-16" transform="translate(154.000000, 0.000000)">
                            <g id="Group-11">
                                <mask id="mask-2" fill="white">
                                    <use xlink:href="#path-1"></use>
                                </mask>
                                <use id="Rectangle" fill="#1B1DC7" opacity="0.0599999987" transform="translate(143.290337, 141.759168) scale(1, -1) rotate(20.000000) translate(-143.290337, -141.759168) " xlink:href="#path-1"></use>
                                <g id="Mike-12" mask="url(#mask-2)">
                                    <g transform="translate(4.000000, 72.000000)">
                                        <path d="M122.91717,99.3836031 L96.8651699,81.6036031 C87.0611699,96.1096031 79.6191699,107.992603 74.5241699,117.268603 C57.5341699,107.277603 20.3121699,83.2716031 19.3281699,82.5376031 C18.3191699,81.3346031 8.83216987,75.0516031 9.47616987,76.9486031 C10.1201699,78.8466031 14.4571699,81.7546031 13.3851699,83.6436031 C12.3141699,85.5306031 -1.42483013,80.8936031 0.121169873,84.7736031 C1.06016987,87.1306031 5.72916987,90.0866031 14.1281699,93.6426031 C42.0901699,139.395603 63.5481699,155.582603 80.2161699,153.920603 C83.7271699,153.571603 86.4591699,152.263603 88.4591699,150.354603 C88.9041699,150.037603 89.3361699,149.692603 89.7431699,149.296603 C95.0041699,144.181603 106.06217,127.543603 122.91717,99.3836031" id="Fill-510" fill="#DD9266"></path>
                                        <path d="M116.32587,57.4373031 C104.22287,62.5133031 96.1378699,68.2063031 92.0708699,74.5123031 C85.9698699,83.9713031 85.2258699,98.7973031 82.9698699,101.915303 C80.7128699,105.031303 73.4678699,106.128303 77.3978699,112.907303 C80.0188699,117.425303 89.7818699,124.585303 106.68787,134.389303 L116.32587,57.4373031 Z" id="Fill-511" fill="#714DB7"></path>
                                        <path d="M89.9508699,124.013503 L97.5998699,128.948503 L95.2938699,103.084503 C95.7798699,114.736503 95.6368699,121.381503 94.8648699,123.022503 C94.0928699,124.663503 92.4548699,124.993503 89.9508699,124.013503" id="Fill-512" fill="#06090E"></path>
                                        <path d="M101.59687,142.192203 C87.7818699,192.407203 79.4708699,230.076203 76.6628699,255.201203 C73.8558699,280.326203 73.8058699,317.486203 76.5128699,366.682203 L104.81087,366.682203 C116.57087,322.139203 122.45087,288.700203 122.45087,266.364203 C122.45087,215.027203 143.20187,194.046203 144.03587,184.171203 C144.71687,176.102203 144.05087,164.943203 142.03587,150.693203 L101.59687,142.192203 Z" id="Fill-515" fill="#0C121B"></path>
                                        <path d="M130.27557,216.730303 C128.66557,221.368303 127.15057,226.560303 125.89157,232.383303 L125.89157,181.078303 L130.27557,216.730303 Z" id="Fill-516" fill="#06090E"></path>
                                        <path d="M119.41717,144.980303 C127.63217,195.373303 133.53617,236.881303 137.12817,269.507303 C140.72017,302.133303 147.91017,334.131303 158.69717,365.501303 L186.56517,365.501303 C191.36517,336.511303 190.63917,304.117303 184.38817,268.318303 C175.01217,214.621303 183.05317,186.494303 183.50117,178.952303 C184.17917,167.557303 180.91817,156.683303 173.71817,146.330303 L119.41717,144.980303 Z" id="Fill-519" fill="#0C121B"></path>
                                        <path d="M134.04117,149.012503 C134.14717,147.865503 134.25417,146.709503 134.36417,145.547503 L137.22817,145.076503 L173.71817,146.329503 C175.89517,149.460503 177.71317,152.639503 179.16917,155.865503 C166.98817,161.727503 155.20317,165.241503 143.81417,166.406503 C127.59217,168.066503 112.17417,164.961503 97.5601699,157.093503 C98.0651699,155.199503 98.5791699,153.283503 99.1011699,151.349503 L124.93617,147.098503 L134.04117,149.012503 Z" id="Fill-520" fill="#06090E"></path>
                                        <path d="M98.3658699,140.293803 C97.2288699,144.968803 95.5968699,146.943803 94.9668699,149.616803 C92.2808699,161.016803 143.19187,164.783803 176.02387,150.441803 C184.40987,126.906803 185.02387,56.8168031 165.77287,53.0028031 C150.27187,49.9318031 122.17087,50.0368031 102.86987,64.8118031 C89.2488699,75.2378031 99.1798699,136.945803 98.3658699,140.293803" id="Fill-521" fill="#714DB7"></path>
                                        <path d="M185.40347,180.136603 C184.84247,182.258603 181.95347,196.999603 179.79147,197.716603 C177.13547,198.598603 173.71647,184.801603 178.07247,172.999603 C178.97847,170.543603 186.48247,158.625603 198.07147,136.982603 C191.52947,126.906603 178.42647,110.157603 173.61147,103.399603 C142.99647,60.4366031 188.83347,57.2506031 202.75547,79.5306031 C213.63247,96.9336031 236.87647,128.948603 230.67747,140.465603 C224.47847,151.983603 221.79047,152.427603 185.40347,180.136603" id="Fill-522" fill="#F3A483"></path>
                                        <path d="M210.50647,85.5584031 C212.88347,90.9104031 219.57947,91.9684031 219.57947,98.8904031 C219.57947,105.812403 190.19947,126.907403 175.52447,126.907403 C159.02647,123.938403 145.86247,82.4724031 144.14047,65.3344031 C142.87447,52.7424031 150.34047,49.9004031 169.96347,53.4314031 C191.27647,57.2684031 206.18347,75.8264031 210.50647,85.5584031" id="Fill-523" fill="#714DB7"></path>
                                        <path d="M180.76677,124.733203 C180.26177,130.436203 179.53677,135.789203 178.62577,140.465203 C176.81177,130.566203 174.93077,124.429203 172.98177,122.054203 C170.92277,119.545203 165.01877,113.466203 155.26977,103.822203 C162.86777,110.464203 167.91977,114.135203 170.42577,114.836203 C172.93177,115.536203 171.32677,107.562203 165.60877,90.9132031 L180.76677,124.733203 Z" id="Fill-524" fill="#06090E"></path>
                                        <path d="M121.29217,55.4002031 C130.35717,62.7282031 145.86217,59.9572031 151.26717,51.4462031 C142.02817,51.1802031 131.39917,52.1552031 121.29217,55.4002031" id="Fill-525" fill="#DD9266"></path>
                                        <polygon id="Fill-526" fill="#DD9266" points="143.46887 33.1004031 147.57087 52.7064031 128.54487 58.5024031 129.95287 40.8274031"></polygon>
                                        <polygon id="Fill-527" fill="#0C121B" points="129.47037 46.8856031 129.04237 52.2646031 140.20837 40.3036031 139.93237 39.7036031"></polygon>
                                        <path d="M149.13197,23.3221031 C148.26497,13.4141031 139.51697,6.08510306 129.59197,6.95310306 C119.98297,7.79410306 111.39897,16.4051031 113.07197,25.1061031 C114.74597,33.8061031 114.34397,32.3221031 114.12797,37.1651031 C113.88797,42.5241031 117.74497,49.9471031 123.61197,50.0053551 C129.47897,50.0621031 143.35697,40.4411031 148.04797,31.2361031 C148.97197,28.7891031 149.37497,26.1011031 149.13197,23.3221031" id="Fill-528" fill="#DD9266"></path>
                                        <path d="M113.74037,28.6453031 C111.39537,27.5043031 108.99737,26.3343031 108.99737,23.7003031 C108.99737,21.8743031 110.49637,20.3443031 110.49637,19.3383031 C110.49637,17.0653031 108.40237,15.5413031 108.99737,13.4663031 C109.67937,11.0953031 111.80337,11.1053031 112.62937,9.82930306 C113.58837,8.34630306 113.31037,6.58830306 115.03237,4.65730306 C116.75337,2.72430306 120.04237,3.72430306 121.85237,2.84530306 C124.93537,1.34830306 125.35137,-0.479696944 129.08737,0.115303056 C132.60737,0.676303056 132.92537,2.32130306 135.01737,3.13830306 C137.11037,3.95630306 140.82937,2.37430306 143.07537,4.23530306 C145.24537,6.03230306 144.09837,7.80330306 145.84937,9.54730306 C147.44037,11.1313031 149.29037,12.4043031 149.87237,13.7463031 C150.81237,15.9123031 149.29037,17.1423031 149.27937,19.8483031 C149.27637,20.5363031 151.12637,21.9723031 151.12637,24.1803031 C151.12637,25.7883031 150.05637,28.1833031 147.91737,31.3663031 C142.19437,32.1213031 137.89437,27.1353031 135.01737,16.4103031 C126.24037,16.0163031 119.24537,16.6843031 114.03237,18.4143031 C113.09637,21.1323031 112.99937,24.5433031 113.74037,28.6453031" id="Fill-529" fill="#47220C"></path>
                                        <path d="M126.26827,24.2381031 C124.49127,24.6471031 123.90127,25.2131031 123.80727,24.8041031 C123.71227,24.3951031 124.14727,23.1681031 125.92527,22.7591031 C127.70327,22.3511031 130.23527,23.2861031 130.33027,23.6941031 C130.42427,24.1021031 128.04527,23.8301031 126.26827,24.2381031" id="Fill-530" fill="#0C121B"></path>
                                        <path d="M116.01677,25.1356031 C117.83877,25.2296031 118.51677,25.6836031 118.53877,25.2646031 C118.56077,24.8466031 117.91877,23.7126031 116.09777,23.6186031 C114.27677,23.5256031 111.94477,24.8856031 111.92277,25.3046031 C111.90077,25.7226031 114.19577,25.0416031 116.01677,25.1356031" id="Fill-531" fill="#0C121B"></path>
                                        <path d="M122.28187,41.4588031 C120.11487,41.6478031 118.25587,40.6268031 118.20887,40.0938031 C118.16287,39.5608031 119.94587,39.7168031 122.11287,39.5268031 C124.27987,39.3378031 126.00887,38.8738031 126.05487,39.4068031 C126.10187,39.9398031 124.44887,41.2698031 122.28187,41.4588031" id="Fill-532" fill="#FFFFFF"></path>
                                        <path d="M120.87957,37.4227031 C120.84957,37.4227031 120.81957,37.4167031 120.79057,37.4057031 L120.55057,37.3157031 C119.42857,36.8897031 118.54257,36.5547031 118.35657,35.8387031 C118.21257,35.2857031 118.50957,34.6097031 119.31957,33.6477031 C120.50557,32.2367031 120.46757,30.1827031 119.20557,27.5427031 C119.14557,27.4187031 119.19857,27.2687031 119.32257,27.2097031 C119.44557,27.1487031 119.59557,27.2017031 119.65657,27.3267031 C121.01057,30.1597031 121.02557,32.3957031 119.70257,33.9697031 C119.02557,34.7727031 118.74457,35.3427031 118.84057,35.7117031 C118.96157,36.1787031 119.74057,36.4737031 120.72757,36.8477031 L120.96857,36.9397031 C121.09757,36.9877031 121.16257,37.1327031 121.11257,37.2617031 C121.07457,37.3617031 120.98057,37.4227031 120.87957,37.4227031" id="Fill-533" fill="#9B5D39"></path>
                                        <path d="M144.51427,33.6805031 C142.13827,33.8885031 140.04427,32.1435031 139.83727,29.7845031 C139.63127,27.4235031 141.38927,25.3415031 143.76627,25.1335031 C146.14227,24.9255031 148.23627,26.6705031 148.44327,29.0315031 C148.64927,31.3905031 146.89027,33.4725031 144.51427,33.6805031" id="Fill-534" fill="#DD9266"></path>
                                        <path d="M127.18477,27.5340031 C126.55577,27.5900031 126.08977,28.1430031 126.14477,28.7710031 C126.19977,29.3990031 126.75477,29.8640031 127.38377,29.8080031 C128.01277,29.7540031 128.47777,29.2000031 128.42277,28.5720031 C128.36777,27.9440031 127.81377,27.4790031 127.18477,27.5340031" id="Fill-535" fill="#0C121B"></path>
                                        <path d="M116.30097,28.4862031 C115.67197,28.5422031 115.20697,29.0952031 115.26197,29.7232031 C115.31697,30.3512031 115.87097,30.8162031 116.49997,30.7602031 C117.12897,30.7062031 117.59397,30.1522031 117.53997,29.5242031 C117.48497,28.8962031 116.92997,28.4312031 116.30097,28.4862031" id="Fill-536" fill="#0C121B"></path>
                                    </g>
                                </g>
                            </g>
                            <g id="Mike-12" transform="translate(4.000000, 72.000000)">
                                <path d="M122.91717,99.3836031 L96.8651699,81.6036031 C87.0611699,96.1096031 79.6191699,107.992603 74.5241699,117.268603 C57.5341699,107.277603 20.3121699,83.2716031 19.3281699,82.5376031 C18.3191699,81.3346031 8.83216987,75.0516031 9.47616987,76.9486031 C10.1201699,78.8466031 14.4571699,81.7546031 13.3851699,83.6436031 C12.3141699,85.5306031 -1.42483013,80.8936031 0.121169873,84.7736031 C1.06016987,87.1306031 5.72916987,90.0866031 14.1281699,93.6426031 C42.0901699,139.395603 63.5481699,155.582603 80.2161699,153.920603 C83.7271699,153.571603 86.4591699,152.263603 88.4591699,150.354603 C88.9041699,150.037603 89.3361699,149.692603 89.7431699,149.296603 C95.0041699,144.181603 106.06217,127.543603 122.91717,99.3836031" id="Fill-510" fill="#F3A483"></path>
                                <path d="M116.32587,57.4373031 C104.22287,62.5133031 96.1378699,68.2063031 92.0708699,74.5123031 C85.9698699,83.9713031 85.2258699,98.7973031 82.9698699,101.915303 C80.7128699,105.031303 73.4678699,106.128303 77.3978699,112.907303 C80.0188699,117.425303 89.7818699,124.585303 106.68787,134.389303 L116.32587,57.4373031 Z" id="Fill-511" fill="#9F98E6"></path>
                                <path d="M89.9508699,124.013503 L97.5998699,128.948503 L95.2938699,103.084503 C95.7798699,114.736503 95.6368699,121.381503 94.8648699,123.022503 C94.0928699,124.663503 92.4548699,124.993503 89.9508699,124.013503" id="Fill-512" fill="#06090E"></path>
                                <path d="M134.04117,149.012503 C134.14717,147.865503 134.25417,146.709503 134.36417,145.547503 L137.22817,145.076503 L173.71817,146.329503 C175.89517,149.460503 177.71317,152.639503 179.16917,155.865503 C166.98817,161.727503 155.20317,165.241503 143.81417,166.406503 C127.59217,168.066503 112.17417,164.961503 97.5601699,157.093503 C98.0651699,155.199503 98.5791699,153.283503 99.1011699,151.349503 L124.93617,147.098503 L134.04117,149.012503 Z" id="Fill-520" fill="#06090E"></path>
                                <path d="M98.3658699,140.293803 C97.2288699,144.968803 95.5968699,146.943803 94.9668699,149.616803 C92.2808699,161.016803 143.19187,164.783803 176.02387,150.441803 C184.40987,126.906803 185.02387,56.8168031 165.77287,53.0028031 C150.27187,49.9318031 122.17087,50.0368031 102.86987,64.8118031 C89.2488699,75.2378031 99.1798699,136.945803 98.3658699,140.293803" id="Fill-521" fill="#9F98E6"></path>
                                <path d="M210.50647,85.5584031 C212.88347,90.9104031 219.57947,91.9684031 219.57947,98.8904031 C219.57947,105.812403 190.19947,126.907403 175.52447,126.907403 C159.02647,123.938403 145.86247,82.4724031 144.14047,65.3344031 C142.87447,52.7424031 150.34047,49.9004031 169.96347,53.4314031 C191.27647,57.2684031 206.18347,75.8264031 210.50647,85.5584031" id="Fill-523" fill="#9F98E6"></path>
                                <path d="M180.76677,124.733203 C180.26177,130.436203 179.53677,135.789203 178.62577,140.465203 C176.81177,130.566203 174.93077,124.429203 172.98177,122.054203 C170.92277,119.545203 165.01877,113.466203 155.26977,103.822203 C162.86777,110.464203 167.91977,114.135203 170.42577,114.836203 C172.93177,115.536203 171.32677,107.562203 165.60877,90.9132031 L180.76677,124.733203 Z" id="Fill-524" fill="#06090E"></path>
                                <path d="M121.29217,55.4002031 C130.35717,62.7282031 145.86217,59.9572031 151.26717,51.4462031 C142.02817,51.1802031 131.39917,52.1552031 121.29217,55.4002031" id="Fill-525" fill="#F3A483"></path>
                                <polygon id="Fill-526" fill="#F3A483" points="143.46887 33.1004031 147.57087 52.7064031 128.54487 58.5024031 129.95287 40.8274031"></polygon>
                                <polygon id="Fill-527" fill="#0C121B" points="129.47037 46.8856031 129.04237 52.2646031 140.20837 40.3036031 139.93237 39.7036031"></polygon>
                                <path d="M149.13197,23.3221031 C148.26497,13.4141031 139.51697,6.08510306 129.59197,6.95310306 C119.98297,7.79410306 111.39897,16.4051031 113.07197,25.1061031 C114.74597,33.8061031 114.34397,32.3221031 114.12797,37.1651031 C113.88797,42.5241031 117.74497,49.9471031 123.61197,50.0053551 C129.47897,50.0621031 143.35697,40.4411031 148.04797,31.2361031 C148.97197,28.7891031 149.37497,26.1011031 149.13197,23.3221031" id="Fill-528" fill="#F3A483"></path>
                                <path d="M113.74037,28.6453031 C111.39537,27.5043031 108.99737,26.3343031 108.99737,23.7003031 C108.99737,21.8743031 110.49637,20.3443031 110.49637,19.3383031 C110.49637,17.0653031 108.40237,15.5413031 108.99737,13.4663031 C109.67937,11.0953031 111.80337,11.1053031 112.62937,9.82930306 C113.58837,8.34630306 113.31037,6.58830306 115.03237,4.65730306 C116.75337,2.72430306 120.04237,3.72430306 121.85237,2.84530306 C124.93537,1.34830306 125.35137,-0.479696944 129.08737,0.115303056 C132.60737,0.676303056 132.92537,2.32130306 135.01737,3.13830306 C137.11037,3.95630306 140.82937,2.37430306 143.07537,4.23530306 C145.24537,6.03230306 144.09837,7.80330306 145.84937,9.54730306 C147.44037,11.1313031 149.29037,12.4043031 149.87237,13.7463031 C150.81237,15.9123031 149.29037,17.1423031 149.27937,19.8483031 C149.27637,20.5363031 151.12637,21.9723031 151.12637,24.1803031 C151.12637,25.7883031 150.05637,28.1833031 147.91737,31.3663031 C142.19437,32.1213031 137.89437,27.1353031 135.01737,16.4103031 C126.24037,16.0163031 119.24537,16.6843031 114.03237,18.4143031 C113.09637,21.1323031 112.99937,24.5433031 113.74037,28.6453031" id="Fill-529" fill="#27282A"></path>
                                <path d="M126.26827,24.2381031 C124.49127,24.6471031 123.90127,25.2131031 123.80727,24.8041031 C123.71227,24.3951031 124.14727,23.1681031 125.92527,22.7591031 C127.70327,22.3511031 130.23527,23.2861031 130.33027,23.6941031 C130.42427,24.1021031 128.04527,23.8301031 126.26827,24.2381031" id="Fill-530" fill="#0C121B"></path>
                                <path d="M116.01677,25.1356031 C117.83877,25.2296031 118.51677,25.6836031 118.53877,25.2646031 C118.56077,24.8466031 117.91877,23.7126031 116.09777,23.6186031 C114.27677,23.5256031 111.94477,24.8856031 111.92277,25.3046031 C111.90077,25.7226031 114.19577,25.0416031 116.01677,25.1356031" id="Fill-531" fill="#0C121B"></path>
                                <path d="M122.28187,41.4588031 C120.11487,41.6478031 118.25587,40.6268031 118.20887,40.0938031 C118.16287,39.5608031 119.94587,39.7168031 122.11287,39.5268031 C124.27987,39.3378031 126.00887,38.8738031 126.05487,39.4068031 C126.10187,39.9398031 124.44887,41.2698031 122.28187,41.4588031" id="Fill-532" fill="#FFFFFF"></path>
                                <path d="M120.87957,37.4227031 C120.84957,37.4227031 120.81957,37.4167031 120.79057,37.4057031 L120.55057,37.3157031 C119.42857,36.8897031 118.54257,36.5547031 118.35657,35.8387031 C118.21257,35.2857031 118.50957,34.6097031 119.31957,33.6477031 C120.50557,32.2367031 120.46757,30.1827031 119.20557,27.5427031 C119.14557,27.4187031 119.19857,27.2687031 119.32257,27.2097031 C119.44557,27.1487031 119.59557,27.2017031 119.65657,27.3267031 C121.01057,30.1597031 121.02557,32.3957031 119.70257,33.9697031 C119.02557,34.7727031 118.74457,35.3427031 118.84057,35.7117031 C118.96157,36.1787031 119.74057,36.4737031 120.72757,36.8477031 L120.96857,36.9397031 C121.09757,36.9877031 121.16257,37.1327031 121.11257,37.2617031 C121.07457,37.3617031 120.98057,37.4227031 120.87957,37.4227031" id="Fill-533" fill="#9B5D39"></path>
                                <path d="M144.51427,33.6805031 C142.13827,33.8885031 140.04427,32.1435031 139.83727,29.7845031 C139.63127,27.4235031 141.38927,25.3415031 143.76627,25.1335031 C146.14227,24.9255031 148.23627,26.6705031 148.44327,29.0315031 C148.64927,31.3905031 146.89027,33.4725031 144.51427,33.6805031" id="Fill-534" fill="#F3A483"></path>
                                <path d="M127.18477,27.5340031 C126.55577,27.5900031 126.08977,28.1430031 126.14477,28.7710031 C126.19977,29.3990031 126.75477,29.8640031 127.38377,29.8080031 C128.01277,29.7540031 128.47777,29.2000031 128.42277,28.5720031 C128.36777,27.9440031 127.81377,27.4790031 127.18477,27.5340031" id="Fill-535" fill="#0C121B"></path>
                                <path d="M116.30097,28.4862031 C115.67197,28.5422031 115.20697,29.0952031 115.26197,29.7232031 C115.31697,30.3512031 115.87097,30.8162031 116.49997,30.7602031 C117.12897,30.7062031 117.59397,30.1522031 117.53997,29.5242031 C117.48497,28.8962031 116.92997,28.4312031 116.30097,28.4862031" id="Fill-536" fill="#0C121B"></path>
                            </g>
                        </g>
                    </g>
                </g>
            </g>
        </g>
    </g>
</svg>