<?xml version="1.0" encoding="UTF-8"?>
<svg width="36px" height="36px" viewBox="0 0 36 36" version="1.1" xmlns="http://www.w3.org/2000/svg" xmlns:xlink="http://www.w3.org/1999/xlink">
    <title>5A7C1123-F161-434D-9B5B-3D0621185DA2</title>
    <defs>
        <linearGradient x1="10.9930809%" y1="0%" x2="50%" y2="100%" id="linearGradient-1">
            <stop stop-color="#128D6E" offset="0%"></stop>
            <stop stop-color="#26DE7F" offset="100%"></stop>
        </linearGradient>
    </defs>
    <g id="Mobile" stroke="none" stroke-width="1" fill="none" fill-rule="evenodd">
        <g id="Landing---New-2" transform="translate(-46.000000, -289.000000)">
            <g id="Group-2" transform="translate(32.000000, 220.000000)">
                <g id="Group-20" transform="translate(14.000000, 0.000000)">
                    <g id="cc-from-top-banks" transform="translate(0.000000, 69.000000)">
                        <rect id="Rectangle" fill="#EAFFEC" x="0" y="0" width="36" height="36" rx="6"></rect>
                        <g id="noun_full_2900923" transform="translate(5.909091, 6.284091)" fill="url(#linearGradient-1)" fill-rule="nonzero">
                            <g id="pay">
                                <path d="M10.298393,0.439081581 C12,-0.511816471 14.1520324,0.138797986 15.1029305,1.84040503 C15.4532613,2.44097222 16.2039703,2.79130308 16.9046321,2.54106675 L16.9046321,2.54106675 L17.1048211,2.49101948 C17.8054828,2.24078315 18.5561918,2.24078315 19.2568536,2.49101948 C21.1086024,3.09158667 22.1095477,5.04343004 21.5089805,6.89517888 L21.5089805,6.89517888 L21.4589333,7.09536794 C21.2086969,7.79602967 21.5089805,8.54673865 22.159595,8.89706952 C22.7601622,9.24740038 23.2606348,9.69782577 23.5609184,10.298393 C24.5118165,12 23.861202,14.1520324 22.159595,15.1029305 L22.159595,15.1029305 L22.0429218,15.1782016 C21.5149862,15.5531334 21.2253793,16.2506811 21.4589333,16.9046321 L21.4589333,16.9046321 L21.5089805,17.1048211 C21.7592168,17.8054828 21.7592168,18.5561918 21.5089805,19.2568536 C20.9084133,21.1086024 18.95657,22.1095477 17.1048211,21.5089805 L17.1048211,21.5089805 L16.9046321,21.4589333 C16.2039703,21.2086969 15.4532613,21.5089805 15.1029305,22.159595 C14.7525996,22.7601622 14.3021742,23.2606348 13.701607,23.5609184 C12,24.5118165 9.84796757,23.861202 8.89706952,22.159595 C8.54673865,21.5590278 7.79602967,21.2086969 7.09536794,21.4589333 L7.09536794,21.4589333 L6.89517888,21.5089805 C6.19451716,21.7592168 5.44380817,21.7592168 4.74314645,21.5089805 C2.89139761,20.9084133 1.89045229,18.95657 2.49101948,17.1048211 L2.49101948,17.1048211 L2.54106675,16.9046321 C2.79130308,16.2039703 2.49101948,15.4532613 1.84040503,15.1029305 C1.23983783,14.7525996 0.739365176,14.3021742 0.439081581,13.701607 C-0.511816471,12 0.138797986,9.84796757 1.84040503,8.89706952 C2.44097222,8.54673865 2.79130308,7.79602967 2.54106675,7.09536794 L2.54106675,7.09536794 L2.49101948,6.89517888 C2.24078315,6.19451716 2.24078315,5.44380817 2.49101948,4.74314645 C3.09158667,2.89139761 5.04343004,1.89045229 6.89517888,2.49101948 L6.89517888,2.49101948 L7.09536794,2.54106675 C7.79602967,2.79130308 8.54673865,2.49101948 8.89706952,1.84040503 C9.24740038,1.23983783 9.69782577,0.739365176 10.298393,0.439081581 Z M12.750709,2.24078315 C12.0500473,1.84040503 11.0991492,2.09064135 10.6987711,2.84135034 C9.89801483,4.29272105 8.14636053,4.99338278 6.54484802,4.49291012 L6.54484802,4.49291012 L6.34465896,4.44286285 C6.04437536,4.34276832 5.74409176,4.34276832 5.44380817,4.44286285 C4.64305192,4.69309918 4.19262652,5.5439027 4.44286285,6.34465896 L4.44286285,6.34465896 L4.49291012,6.54484802 C4.99338278,8.14636053 4.29272105,9.89801483 2.84135034,10.6987711 C2.59111401,10.8489129 2.39092495,11.0491019 2.24078315,11.2993383 C1.84040503,12 2.09064135,12.9508981 2.84135034,13.3512762 C4.29272105,14.1520324 4.99338278,15.9036867 4.49291012,17.5051992 L4.49291012,17.5051992 L4.44286285,17.655341 C4.34276832,17.9556246 4.34276832,18.2559082 4.44286285,18.5561918 C4.69309918,19.3569481 5.5439027,19.8073735 6.34465896,19.5571371 L6.34465896,19.5571371 L6.54484802,19.5070899 C6.89517888,19.4069954 7.24550974,19.3569481 7.5958406,19.3569481 C8.89706952,19.3569481 10.0982039,20.0576098 10.6987711,21.2086969 C10.8489129,21.4589333 11.0491019,21.6591223 11.2993383,21.8092641 C12,22.2096422 12.9508981,21.9594059 13.3512762,21.2086969 C14.1520324,19.7573262 15.9036867,19.0566645 17.5051992,19.5571371 L17.5051992,19.5571371 L17.7053883,19.6071844 C18.0056719,19.7072789 18.3059555,19.7072789 18.6062391,19.6071844 C19.4069954,19.3569481 19.8574207,18.5061446 19.6071844,17.7053883 L19.6071844,17.7053883 L19.5571371,17.5051992 C19.0066172,15.9036867 19.7072789,14.1520324 21.2086969,13.3512762 C21.5089805,13.2011344 21.7091696,13.0009453 21.8092641,12.7006617 C22.2096422,12 21.9594059,11.0491019 21.2086969,10.6487238 C19.7573262,9.84796757 19.0566645,8.09631326 19.5571371,6.49480075 L19.5571371,6.49480075 L19.6071844,6.39470622 C19.7072789,6.09442263 19.7072789,5.79413903 19.6071844,5.49385544 C19.3569481,4.69309918 18.5061446,4.24267379 17.7053883,4.49291012 L17.7053883,4.49291012 L17.5051992,4.54295738 C15.9036867,5.04343004 14.1520324,4.34276832 13.3512762,2.84135034 C13.2011344,2.59111401 13.0009453,2.39092495 12.750709,2.24078315 Z M14.3021742,8.29650232 C14.7025524,7.8961242 15.3031195,7.8961242 15.7034977,8.29650232 C16.1038758,8.69688045 16.1038758,9.29744764 15.7034977,9.69782577 L15.7034977,9.69782577 L9.69782577,15.7034977 C9.69782577,15.7535449 9.6477785,15.7535449 9.59773124,15.8035922 C9.19735311,16.1539231 8.54673865,16.1038758 8.19640779,15.7034977 C7.84607693,15.3031195 7.8961242,14.6525051 8.29650232,14.3021742 Z M15.5033086,13.0009453 C16.3541121,13.0009453 17.0047266,13.6515598 17.0047266,14.5023633 L17.0047266,14.5023633 L16.9980645,14.6503353 C16.927491,15.4274584 16.3040649,16.0037813 15.5033086,16.0037813 C14.6525051,16.0037813 14.0018906,15.3531668 14.0018906,14.5023633 C14.0018906,13.6515598 14.6525051,13.0009453 15.5033086,13.0009453 Z M8.49669139,7.99621873 C9.34749491,7.99621873 9.99810936,8.64683319 9.99810936,9.49763671 C9.99810936,10.3484402 9.34749491,10.9990547 8.49669139,10.9990547 C7.64588787,10.9990547 6.99527341,10.3484402 6.99527341,9.49763671 C6.99527341,8.64683319 7.64588787,7.99621873 8.49669139,7.99621873 Z" id="Combined-Shape"></path>
                            </g>
                        </g>
                    </g>
                </g>
            </g>
        </g>
    </g>
</svg>