<?xml version="1.0" encoding="UTF-8"?>
<svg width="36px" height="36px" viewBox="0 0 36 36" version="1.1" xmlns="http://www.w3.org/2000/svg" xmlns:xlink="http://www.w3.org/1999/xlink">
    <title>1B9A0132-8953-44A9-904F-071EA723D520</title>
    <defs>
        <linearGradient x1="50%" y1="100%" x2="50%" y2="0%" id="linearGradient-1">
            <stop stop-color="#00C6FB" offset="0%"></stop>
            <stop stop-color="#005BEA" offset="100%"></stop>
        </linearGradient>
    </defs>
    <g id="Mobile" stroke="none" stroke-width="1" fill="none" fill-rule="evenodd">
        <g id="Landing---New-2" transform="translate(-46.000000, -358.000000)">
            <g id="Group-2" transform="translate(32.000000, 220.000000)">
                <g id="Group-20" transform="translate(14.000000, 0.000000)">
                    <g id="cc-from-top-banks" transform="translate(0.000000, 138.000000)">
                        <rect id="Rectangle" fill="#E8F4FD" x="0" y="0" width="36" height="36" rx="6"></rect>
                        <g id="noun_full_2900923" transform="translate(6.909091, 6.284091)" fill="url(#linearGradient-1)">
                            <g id="noun_time-is-money_1515706" transform="translate(0.090909, 0.715909)">
                                <path d="M23.0410424,9.56609429 C23.5706601,9.56609429 24,10.0021913 24,10.5401443 C24,11.0183247 23.6607684,11.4160264 23.2134163,11.498501 L23.0410424,11.5141943 L21.687183,11.5140459 C21.8673718,11.8457433 22.0087419,12.2082504 22.1046131,12.5921766 L23.0410424,12.5928761 C23.5706601,12.5928761 24,13.0289732 24,13.5669261 C24,14.0451065 23.6607684,14.4428082 23.2134163,14.5252829 L23.0410424,14.5409761 L22.1863386,14.5409383 C21.9145393,16.1383894 20.7833407,17.2060394 19.2527466,17.427766 L19.1172043,17.4415126 L22.0190599,20.3305149 C22.349921,20.6600978 22.3958076,21.1734605 22.1536824,21.5539538 L22.0322722,21.7079642 C21.707796,22.0440325 21.2023876,22.0906413 20.8277899,21.8447055 L20.6761658,21.7213845 L16.1292684,17.192052 C15.5569598,16.6219543 15.8897101,15.6617322 16.6348988,15.5362363 L16.8007154,15.5225672 L18.6463572,15.5225672 C19.4270158,15.5225672 19.9801362,15.184454 20.2110749,14.5411409 L16.80053,14.5409761 C16.2709124,14.5409761 15.8415725,14.1048791 15.8415725,13.5669261 C15.8415725,13.0887457 16.180804,12.6910441 16.6281562,12.6085694 L16.80053,12.5928761 L20.0793232,12.5927938 C19.8077307,12.0084502 19.3451195,11.6088042 18.834718,11.528912 L18.6463572,11.5141943 L16.80053,11.5141943 C16.2709124,11.5141943 15.8415725,11.0780973 15.8415725,10.5401443 C15.8415725,10.0619639 16.180804,9.66426222 16.6281562,9.58178754 L16.80053,9.56609429 L23.0410424,9.56609429 Z M7.3975371,0.363947741 C12.2591649,-0.973736189 17.3648767,1.47429581 19.348704,6.09416523 C19.5035258,6.41095174 19.4709921,6.78688901 19.2640302,7.07259881 C19.0570682,7.35830861 18.7091981,7.50751663 18.3586456,7.46093523 C18.0080931,7.41435384 17.7116347,7.17952747 17.5870677,6.84976412 C15.8296866,2.75390946 11.0913108,0.829653541 6.96070945,2.53439669 C2.83010815,4.23913984 0.845583947,8.93800819 2.51018338,13.0721548 C4.17478281,17.2063015 8.8685822,19.2361035 13.0365738,17.6242216 C13.5309893,17.4327364 14.0876004,17.6768213 14.2797994,18.1694006 C14.4719985,18.6619798 14.2270036,19.2165237 13.7325881,19.4080089 C12.5677238,19.8579424 11.3290565,20.088215 10.0797128,20.0870955 C5.03608419,20.0864489 0.769213233,16.3720614 0.0920579422,11.3926593 C-0.585097349,6.41325715 2.53590928,1.70163167 7.3975371,0.363947741 Z M9.59970285,3.82736857 C10.1299072,3.82736857 10.5597227,4.25558774 10.5597227,4.78382286 L10.5597227,4.78382286 L10.5597227,9.56609429 L13.4397821,9.56609429 C13.9699864,9.56609429 14.3998019,9.99431346 14.3998019,10.5225486 C14.3998019,11.0507837 13.9699864,11.4790029 13.4397821,11.4790029 L13.4397821,11.4790029 L9.59970285,11.4790029 C9.06949855,11.4790029 8.63968304,11.0507837 8.63968304,10.5225486 L8.63968304,10.5225486 L8.63968304,4.78382286 C8.63968304,4.25558774 9.06949855,3.82736857 9.59970285,3.82736857 Z" id="Combined-Shape"></path>
                            </g>
                        </g>
                    </g>
                </g>
            </g>
        </g>
    </g>
</svg>