<?xml version="1.0" encoding="UTF-8"?>
<svg width="59px" height="24px" viewBox="0 0 59 24" version="1.1" xmlns="http://www.w3.org/2000/svg" xmlns:xlink="http://www.w3.org/1999/xlink">
    <title>AE7DC2C2-3741-4D13-AED5-2B7B6EC7F491</title>
    <defs>
        <linearGradient x1="3.56871398%" y1="40.5915438%" x2="91.6337519%" y2="55.5021189%" id="linearGradient-1">
            <stop stop-color="#FFFFFF" offset="0%"></stop>
            <stop stop-color="#F99E00" offset="100%"></stop>
        </linearGradient>
        <linearGradient x1="24.7119358%" y1="90.2075734%" x2="76.676285%" y2="34.8761236%" id="linearGradient-2">
            <stop stop-color="#F99E00" offset="0%"></stop>
            <stop stop-color="#FFFFFF" offset="100%"></stop>
        </linearGradient>
        <linearGradient x1="70.2670311%" y1="75.9452624%" x2="-6.05807593%" y2="-25.4571497%" id="linearGradient-3">
            <stop stop-color="#FFFFFF" offset="0%"></stop>
            <stop stop-color="#000000" offset="100%"></stop>
        </linearGradient>
    </defs>
    <g id="Mobile" stroke="none" stroke-width="1" fill="none" fill-rule="evenodd">
        <g id="Landing---New-2" transform="translate(-285.000000, -12.000000)">
            <g id="POD-Logo" transform="translate(285.000000, 12.000000)">
                <g id="Icon" transform="translate(36.521739, 0.626087)">
                    <path d="M13.1074826,5.1972187 C12.9805826,4.76553765 12.7902326,4.36242034 12.5364326,3.98786678 L12.5364326,3.98786678 C12.2830924,3.61331321 11.9612446,3.28344807 11.5718087,2.99827137 L11.5718087,2.99827137 C11.1055891,2.6568886 10.6058054,2.42469303 10.0719978,2.30076325 L10.0719978,2.30076325 C9.53865,2.17729418 9.00760109,2.15656243 8.47931087,2.23902871 L8.47931087,2.23902871 C7.95148043,2.32103429 7.45215652,2.50255226 6.98133913,2.7831219 L6.98133913,2.7831219 C6.51006196,3.06323084 6.10407391,3.43732371 5.76429457,3.90401838 L5.76429457,3.90401838 C5.42359565,4.37163445 5.19140543,4.87242133 5.0681837,5.4068397 L5.0681837,5.4068397 C4.94496196,5.94171879 4.92427174,6.47383363 5.00611304,7.00272354 L5.00611304,7.00272354 C5.08841413,7.53161345 5.2691087,8.03240033 5.5491163,8.50416276 L5.5491163,8.50416276 C5.82912391,8.97592518 6.20246739,9.38226743 6.66822717,9.72365021 L6.66822717,9.72365021 C7.13444674,10.065033 7.63423043,10.2976893 8.16803804,10.4211583 L8.16803804,10.4211583 C8.70230543,10.5446274 9.23243478,10.5653591 9.760725,10.4828929 L9.760725,10.4828929 C10.2885554,10.4008873 10.7883391,10.2189086 11.2591565,9.93879967 L11.2591565,9.93879967 C11.7295141,9.65823002 12.1355022,9.28459787 12.4762011,8.81744249 L12.4762011,8.81744249 L12.484937,8.80454274 L18.206012,0.958728138 L16.8965511,0 L13.1074826,5.1972187 Z M8.53954239,8.83679212 C8.21263696,8.76031501 7.90964022,8.62026054 7.63147174,8.41616801 L7.63147174,8.41616801 C7.3523837,8.21207547 7.12663043,7.96605874 6.9555913,7.67719639 L6.9555913,7.67719639 C6.78317283,7.38879475 6.67236522,7.08334701 6.62316848,6.76039245 L6.62316848,6.76039245 C6.57305217,6.4374379 6.58454674,6.110337 6.65765217,5.77908975 L6.65765217,5.77908975 C6.73029783,5.4487639 6.86915217,5.14285546 7.07329565,4.86274651 L7.07329565,4.86274651 C7.27789891,4.58263757 7.52618152,4.35735258 7.81860326,4.18689155 L7.81860326,4.18689155 C8.111025,4.01735193 8.41815978,3.90678261 8.74000761,3.856105 L8.74000761,3.856105 C9.062775,3.8054274 9.38646196,3.81786645 9.71336739,3.89434356 L9.71336739,3.89434356 C10.039813,3.97035997 10.34235,4.11087514 10.621438,4.31450697 L10.621438,4.31450697 C10.9000663,4.51859951 11.1258196,4.76553765 11.2973185,5.05393929 L11.2973185,5.05393929 C11.4692772,5.34234094 11.5800848,5.64824938 11.6297413,5.97120394 L11.6297413,5.97120394 C11.6793978,6.29415849 11.6669837,6.61711304 11.5929587,6.9405283 L11.5929587,6.9405283 C11.5193935,7.26440427 11.3800793,7.56616637 11.1759359,7.84673601 L11.1759359,7.84673601 L11.1662804,7.85917506 C10.962137,8.139284 10.7161533,8.36595111 10.4283293,8.53917637 L10.4283293,8.53917637 C10.1391261,8.71240164 9.83429022,8.82481378 9.51244239,8.87503068 L9.51244239,8.87503068 C9.38370326,8.89530172 9.25496413,8.90543724 9.12576522,8.90543724 L9.12576522,8.90543724 C8.93127717,8.90543724 8.73586957,8.88240197 8.53954239,8.83679212 L8.53954239,8.83679212 Z" id="Fill-1" fill="url(#linearGradient-1)"></path>
                    <path d="M8.46321848,2.25653552 C7.93538804,2.3390018 7.43652391,2.52005906 6.96478696,2.80062871 L6.96478696,2.80062871 C6.49396957,3.08119836 6.08798152,3.45483052 5.74820217,3.92198589 L5.74820217,3.92198589 L5.73900652,3.93442494 L0,11.8064998 L1.30900109,12.7647672 L5.11646087,7.54267039 C5.24336087,7.97435144 5.43417065,8.38069368 5.68935,8.76261854 L5.68935,8.76261854 C5.94360978,9.14408269 6.26591739,9.47763347 6.65581304,9.76327088 L6.65581304,9.76327088 C7.12157283,10.1041929 7.62319565,10.3345457 8.16022174,10.4543291 L8.16022174,10.4543291 C8.69724783,10.5736518 9.2292163,10.5920801 9.75704674,10.5096138 L9.75704674,10.5096138 C10.2848772,10.4271475 10.7865,10.2479331 11.262375,9.97012765 L11.262375,9.97012765 C11.7373304,9.69278294 12.1451576,9.3205329 12.484937,8.85383823 L12.484937,8.85383823 C12.8260957,8.38668285 13.055987,7.88405316 13.1750707,7.34640984 L13.1750707,7.34640984 C13.2946141,6.80830582 13.3125457,6.27480886 13.2307043,5.74545824 L13.2307043,5.74545824 C13.1484033,5.21702904 12.969088,4.71439934 12.6922989,4.23802986 L12.6922989,4.23802986 C12.41505,3.76212108 12.0440054,3.35347531 11.5777859,3.01209253 L11.5777859,3.01209253 C11.1115663,2.67117047 10.6081043,2.4394356 10.0669402,2.31642724 L10.0669402,2.31642724 C9.74371304,2.24317506 9.42278478,2.20677933 9.10415543,2.20677933 L9.10415543,2.20677933 C8.88943696,2.20677933 8.67563804,2.22336473 8.46321848,2.25653552 M8.52804783,8.86719869 C8.19700435,8.79440722 7.8917087,8.65573486 7.61216087,8.45118162 L7.61216087,8.45118162 C7.33307283,8.24616768 7.10594022,7.99969024 6.93398152,7.71036719 L6.93398152,7.71036719 C6.76156304,7.42104413 6.64983587,7.11513568 6.59971957,6.79172043 L6.59971957,6.79172043 C6.54960326,6.46876587 6.56017826,6.14120427 6.6332837,5.81041772 L6.6332837,5.81041772 C6.70500978,5.47917047 6.84432391,5.17326202 7.04800761,4.89315308 L7.04800761,4.89315308 L7.05720326,4.88025332 C7.26180652,4.60014438 7.50779022,4.37301657 7.7965337,4.20025201 L7.7965337,4.20025201 C8.08527717,4.02794815 8.39103261,3.91599672 8.7138,3.86531911 L8.7138,3.86531911 C9.03610761,3.81510221 9.36301304,3.82615915 9.69313696,3.89895062 L9.69313696,3.89895062 C10.0232609,3.97128138 10.3331543,4.11317867 10.621438,4.32418179 L10.621438,4.32418179 C10.9005261,4.52919573 11.1253598,4.7779767 11.2950196,5.0714461 L11.2950196,5.0714461 C11.4642196,5.3644548 11.5745674,5.67312748 11.6242239,5.99654274 L11.6242239,5.99654274 C11.6748,6.31949729 11.6637652,6.6470589 11.5911196,6.97784545 L11.5911196,6.97784545 C11.5184739,7.3090927 11.3800793,7.61500115 11.1759359,7.89511009 L11.1759359,7.89511009 C10.9717924,8.17521903 10.7225902,8.40050402 10.4306283,8.57004364 L10.4306283,8.57004364 C10.137287,8.74004397 9.82969239,8.85015258 9.50738478,8.90036948 L9.50738478,8.90036948 C9.37496739,8.92110123 9.24163043,8.93169746 9.1078337,8.93169746 L9.1078337,8.93169746 C8.91564457,8.93123675 8.72253587,8.9100443 8.52804783,8.86719869" id="Fill-4" fill="url(#linearGradient-2)"></path>
                    <polygon id="Fill-7" fill="url(#linearGradient-3)" opacity="0.2" points="12.1267663 6.74150353 10.4421228 9.72503232 6.06269348 9.29980115 9.78831196 14.4182392 15.8914663 10.2898573 13.085413 5.03228614"></polygon>
                    <path d="M12.0654313,3.37452955 C11.2447193,2.56829493 10.2456117,2.16517762 9.06810848,2.16517762 C7.89612261,2.16517762 6.90299217,2.5655307 6.08733783,3.36623685 C5.27168348,4.16740371 4.8638563,5.1390316 4.8638563,6.28019911 C4.8638563,7.49231527 5.26340739,8.49895678 6.06250957,9.30012364 C6.8625313,10.111426 7.85336283,10.5173076 9.03546391,10.5173076 C10.2295193,10.5173076 11.2364433,10.1197187 12.0571552,9.32454103 C12.8728096,8.52337418 13.2810965,7.53055383 13.2810965,6.34515859 C13.2810965,5.17128098 12.876028,4.18076417 12.0654313,3.37452955" id="Fill-29" fill="#F99F00"></path>
                    <path d="M10.2860266,4.72333703 L9.41106033,4.72333703 C9.59221467,4.86707715 9.72325272,5.07393391 9.76095489,5.36233555 L10.2860266,5.36233555 C10.3724658,5.36233555 10.4423527,5.43236279 10.4423527,5.51897542 C10.4423527,5.60558806 10.3724658,5.67515459 10.2860266,5.67515459 L9.76739185,5.67515459 C9.70486141,6.31461381 9.19864076,6.72141677 8.39861902,6.74675557 C8.78943424,7.15355852 9.20875598,7.64513129 9.63037663,8.15697509 C9.7554375,8.3085472 9.64738859,8.53797854 9.4515212,8.53797854 C9.38209402,8.53797854 9.31680489,8.50665057 9.27220598,8.45366943 C8.84001033,7.93261152 8.42712554,7.44196016 7.91768641,6.89233851 C7.8491788,6.81908633 7.81055707,6.72187747 7.81055707,6.62144368 L7.81055707,6.5984084 C7.81055707,6.48277132 7.90389293,6.38970881 8.01883859,6.38970881 L8.15447446,6.38970881 C8.82943533,6.38970881 9.1922038,6.10775705 9.23588315,5.67515459 L7.96688315,5.67515459 C7.8809038,5.67515459 7.81055707,5.60558806 7.81055707,5.51897542 C7.81055707,5.43236279 7.8809038,5.36233555 7.96688315,5.36233555 L9.21749185,5.36233555 C9.12967337,4.99883892 8.79862989,4.81732095 8.25424728,4.81732095 L8.01378098,4.81732095 C7.90159402,4.81732095 7.81055707,4.72610126 7.81055707,4.61368912 C7.81055707,4.50127698 7.90159402,4.41005729 8.01378098,4.41005729 L10.2860266,4.41005729 C10.3724658,4.41005729 10.4423527,4.48008453 10.4423527,4.56669716 C10.4423527,4.65330979 10.3724658,4.72333703 10.2860266,4.72333703" id="Fill-30" fill="#FFFFFF"></path>
                </g>
                <path d="M13.3804705,15.6090901 C14.5326858,15.6090901 15.4439749,15.9794973 16.1147977,16.7207724 C16.7791836,17.4565191 17.1116064,18.4769818 17.1116064,19.7807783 L17.1116064,19.7807783 L17.1037901,20.2110773 L11.4903042,20.2110773 C11.5381216,20.8602113 11.7473227,21.3771229 12.1174477,21.7613513 C12.4875727,22.1400512 12.9620684,22.3294011 13.5409347,22.3294011 C13.9915216,22.3294011 14.3639455,22.2211354 14.6586662,22.0046038 C14.948789,21.7885329 15.2784532,21.3881798 15.6485782,20.8035445 L15.6485782,20.8035445 L17.175976,21.6636817 C16.9401075,22.0695632 16.6909053,22.4178566 16.4283695,22.7067189 C16.1658336,22.9965027 15.8839868,23.2346874 15.5842086,23.4212732 C15.283051,23.6078589 14.959364,23.7446884 14.6108488,23.8308404 C14.2618738,23.917453 13.8843923,23.9607593 13.4765651,23.9607593 C12.3082575,23.9607593 11.3693814,23.5825201 10.6613162,22.8246596 C9.95371076,22.0617313 9.60013793,21.0495613 9.60013793,19.7886103 C9.60013793,18.539177 9.94267598,17.5270071 10.6295912,16.7534825 C11.321564,15.9900935 12.2379108,15.6090901 13.3804705,15.6090901 Z M8.0105625,12.2967825 L8.0105625,23.7015471 L6.19304185,23.7015471 L6.19304185,22.87412 C5.47991902,23.5771566 4.67300054,23.9291356 3.77182663,23.9291356 C2.69961359,23.9291356 1.80901467,23.534311 1.10140924,22.7442011 C0.399321196,21.9379665 0.0480472826,20.931325 0.0480472826,19.7247373 C0.0480472826,18.5448705 0.399321196,17.5598821 1.10140924,16.7702329 C1.79797989,15.9745945 2.67478533,15.5770057 3.73182554,15.5770057 C4.64817228,15.5770057 5.46888424,15.9557056 6.19304185,16.7135661 L6.19304185,16.7135661 L6.19304185,12.2967825 L8.0105625,12.2967825 Z M58.5121187,12.9657269 L58.5121187,23.7015471 L56.694598,23.7015471 L56.694598,22.87412 C55.9814752,23.5771566 55.174097,23.9291356 54.272923,23.9291356 C53.2011698,23.9291356 52.3105709,23.534311 51.6025057,22.7442011 C50.9008774,21.9379665 50.5496035,20.931325 50.5496035,19.7247373 C50.5496035,18.5448705 50.9008774,17.5598821 51.6025057,16.7702329 C52.2995361,15.9745945 53.1763415,15.5770057 54.2333817,15.5770057 C55.1497285,15.5770057 55.9704404,15.9557056 56.694598,16.7135661 L56.694598,16.7135661 L56.694598,12.9657269 L58.5121187,12.9657269 Z M35.3319946,15.5770057 C36.2437435,15.5770057 37.061237,15.9557056 37.7849348,16.7135661 L37.7849348,16.7135661 L37.7849348,15.7958408 L39.6024554,15.7958408 L39.6024554,23.7015471 L37.7849348,23.7015471 L37.7849348,22.87412 C37.0396272,23.5771566 36.2382261,23.9291356 35.379812,23.9291356 C34.2970239,23.9291356 33.4013674,23.534311 32.693762,22.7442011 C31.9916739,21.9379665 31.6404,20.931325 31.6404,19.7247373 C31.6404,18.539342 31.9916739,17.5520501 32.693762,16.7619402 C33.3967696,15.9718303 34.2758739,15.5770057 35.3319946,15.5770057 Z M45.8441883,15.5771439 C46.7554774,15.5771439 47.4663013,15.8664669 47.9757404,16.4455737 C48.4152926,16.9376072 48.6346089,17.7410776 48.6346089,18.8564456 L48.6346089,18.8564456 L48.6346089,23.7016853 L46.8170883,23.7016853 L46.8170883,19.2862838 C46.8170883,18.5072308 46.7099589,17.9686661 46.4957002,17.6710504 C46.2869589,17.3683669 45.9062589,17.216334 45.35406,17.216334 C44.7531241,17.216334 44.3264459,17.4167409 44.074485,17.817094 C43.8280415,18.2123793 43.7052796,18.9025162 43.7052796,19.8870438 L43.7052796,19.8870438 L43.7052796,23.7016853 L41.8877589,23.7016853 L41.8877589,15.795979 L43.7052796,15.795979 L43.7052796,16.5266579 C44.3374807,15.8936486 45.0501437,15.5771439 45.8441883,15.5771439 Z M27.0808738,15.5771439 C28.8445999,15.5771439 29.7264629,16.6565769 29.7264629,18.8154428 L29.7264629,18.8154428 L29.7264629,23.7016853 L27.9089423,23.7016853 L27.9089423,19.3107012 C27.9089423,18.5533014 27.8179053,18.0175009 27.6358314,17.7037605 C27.4473205,17.3840308 27.139726,17.2246267 26.7107488,17.2246267 C26.2123445,17.2246267 25.8486564,17.4144374 25.621064,17.7931373 C25.3930118,18.1718372 25.2794455,18.7804292 25.2794455,19.6189132 L25.2794455,19.6189132 L25.2794455,23.7016853 L23.4614651,23.7016853 L23.4614651,19.3351186 C23.4614651,17.928124 23.0586955,17.2246267 22.2545358,17.2246267 C21.7455564,17.2246267 21.3735923,17.4167409 21.1414021,17.8009693 C20.9078325,18.1851977 20.7915075,18.7914861 20.7915075,19.6189132 L20.7915075,19.6189132 L20.7915075,23.7016853 L18.9818032,23.7016853 L18.9818032,15.795979 L20.7915075,15.795979 L20.7915075,16.5266579 C21.1400227,16.1585542 21.4370423,15.9097733 21.6839455,15.7798543 C21.9460216,15.6444069 22.2766053,15.5771439 22.6733977,15.5771439 C23.5580195,15.5771439 24.2578086,15.96644 24.7723053,16.7459537 C25.3405966,15.96644 26.1102727,15.5771439 27.0808738,15.5771439 Z M4.07712228,17.2244885 C3.45503641,17.2244885 2.93594185,17.463134 2.51707989,17.9390428 C2.10419511,18.4209407 1.89775272,19.0161722 1.89775272,19.7247373 C1.89775272,20.4821371 2.0991375,21.0994825 2.5009875,21.5753912 C2.91387228,22.0568285 3.4343462,22.2977775 4.06148967,22.2977775 C4.73139293,22.2977775 5.27347663,22.0651212 5.68636141,21.5998086 C6.09832663,21.1183714 6.3052288,20.5065545 6.3052288,19.7652793 C6.3052288,19.0240042 6.09832663,18.412648 5.68636141,17.9307501 C5.27347663,17.459909 4.73691033,17.2244885 4.07712228,17.2244885 Z M54.5786785,17.2244885 C53.9561328,17.2244885 53.437498,17.463134 53.0181763,17.9390428 C52.6052915,18.4209407 52.3993089,19.0161722 52.3993089,19.7247373 C52.3993089,20.4821371 52.6002339,21.0994825 53.0020839,21.5753912 C53.4154285,22.0568285 53.9359024,22.2977775 54.5630459,22.2977775 C55.2329491,22.2977775 55.7750328,22.0651212 56.1879176,21.5998086 C56.5998828,21.1183714 56.806785,20.5065545 56.806785,19.7652793 C56.806785,19.0240042 56.5998828,18.412648 56.1879176,17.9307501 C55.7750328,17.459909 55.2384665,17.2244885 54.5786785,17.2244885 Z M35.669475,17.2244885 C35.0473891,17.2244885 34.5282946,17.463134 34.1094326,17.9390428 C33.696088,18.4209407 33.4901054,19.0161722 33.4901054,19.7247373 C33.4901054,20.4821371 33.6910304,21.0994825 34.0933402,21.5753912 C34.506225,22.0568285 35.0266989,22.2977775 35.6538424,22.2977775 C36.3237457,22.2977775 36.8658293,22.0651212 37.2787141,21.5998086 C37.6906793,21.1183714 37.8971217,20.5065545 37.8971217,19.7652793 C37.8971217,19.0240042 37.6906793,18.412648 37.2787141,17.9307501 C36.8658293,17.459909 36.3288033,17.2244885 35.669475,17.2244885 Z M13.4200118,17.2561122 C13.2002358,17.2561122 12.9942532,17.2906651 12.8011445,17.3579281 C12.6080358,17.4256518 12.4328586,17.5233214 12.2737738,17.6500154 C12.1160684,17.7776308 11.9808923,17.9301244 11.8682455,18.1088781 C11.755139,18.2876318 11.6696195,18.4903422 11.6103075,18.7174701 L11.6103075,18.7174701 L15.2462684,18.7174701 C14.9943075,17.7435386 14.3860151,17.2561122 13.4200118,17.2561122 Z M4.2695413,2.92262353 C5.35462826,2.92262353 6.24844565,3.3229766 6.9505337,4.12322205 C7.66319674,4.91886044 8.01952826,5.92319842 8.01952826,7.13485388 C8.01952826,8.32024912 7.66595543,9.307541 6.95835,10.0976509 C6.25626196,10.8822324 5.37118043,11.2742928 4.30172609,11.2742928 C3.37848261,11.2742928 2.55179348,10.9038855 1.82303804,10.1626104 L1.82303804,10.1626104 L1.82303804,13.8625362 L0,13.8625362 L0,3.14145864 L1.82303804,3.14145864 L1.82303804,4.00205651 C2.5407587,3.28197381 3.35641304,2.92262353 4.2695413,2.92262353 Z M34.312381,2.92257746 C35.2301071,2.92257746 36.0535777,3.30081667 36.7832527,4.05867721 L36.7832527,4.05867721 L36.7832527,3.14141257 L38.6136473,3.14141257 L38.6136473,11.0471189 L36.7832527,11.0471189 L36.7832527,10.2192311 C36.0319679,10.9227284 35.2250495,11.2742467 34.3606582,11.2742467 C33.269594,11.2742467 32.3679603,10.8798828 31.6548375,10.0897729 C30.9476918,9.28353824 30.5936592,8.27689674 30.5936592,7.07030904 C30.5936592,5.8849138 30.9476918,4.89762192 31.6548375,4.10751199 C32.3624429,3.31740207 33.2479842,2.92257746 34.312381,2.92257746 Z M26.5681246,2.92276174 C27.5778072,2.92276174 28.3281724,3.44474107 28.8201398,4.48869972 L28.8201398,4.48869972 L27.3134322,5.29263081 C27.0757246,4.8056651 26.7819235,4.56195189 26.4301898,4.56195189 C26.2632887,4.56195189 26.1198365,4.61723655 26.0016724,4.72872728 C25.8821289,4.8392966 25.8232767,4.9816546 25.8232767,5.15441916 C25.8232767,5.45756338 26.1740909,5.75794336 26.8757191,6.05509841 C27.8431017,6.47203688 28.4936941,6.85626527 28.8284159,7.20824427 C29.1626778,7.55976256 29.3304985,8.03336781 29.3304985,8.62859931 C29.3304985,9.39152761 29.0500311,10.0300654 28.487717,10.5442128 C27.9424148,11.0311785 27.2835463,11.274431 26.5115713,11.274431 C25.1878572,11.274431 24.25128,10.6280612 23.7004604,9.33440013 L23.7004604,9.33440013 L25.255905,8.61247462 C25.4720028,8.99117454 25.6361452,9.23166281 25.7501713,9.33440013 C25.970867,9.54033549 26.2361615,9.64307281 26.5442159,9.64307281 C27.1598648,9.64307281 27.4669996,9.36204246 27.4669996,8.79859964 C27.4669996,8.47426297 27.2297517,8.17157946 26.7543365,7.88962769 C26.5708833,7.7979473 26.3869702,7.70857043 26.203517,7.6219578 C26.0205235,7.53534517 25.833392,7.4459683 25.6448811,7.3538272 C25.1156713,7.09445001 24.7427876,6.83461211 24.5266898,6.57477421 C24.25128,6.24490907 24.113805,5.82013861 24.113805,5.30046281 C24.113805,4.61355091 24.3482941,4.04550103 24.8186517,3.59631317 C25.2991246,3.14666461 25.8821289,2.92276174 26.5681246,2.92276174 Z M13.1097042,2.87865529 C14.0274303,2.87865529 14.8513608,3.25735521 15.5810358,4.01521575 L15.5810358,4.01521575 L15.5810358,3.0974904 L17.4114303,3.0974904 L17.4114303,11.0031967 L15.5810358,11.0031967 L15.5810358,10.1757696 C14.829751,10.8788062 14.0228325,11.2307852 13.1584412,11.2307852 C12.0673771,11.2307852 11.1657434,10.8359606 10.4526205,10.0458507 C9.74547489,9.23961608 9.39144228,8.23297457 9.39144228,7.02638687 C9.39144228,5.84099163 9.74547489,4.85369975 10.4526205,4.06358983 C11.1606858,3.2734799 12.0457673,2.87865529 13.1097042,2.87865529 Z M21.7179695,3.14159685 L21.7179695,11.0473032 L19.8953912,11.0473032 L19.8953912,3.14159685 L21.7179695,3.14159685 Z M55.7016055,2.9179704 C56.6197914,2.9179704 57.3352132,3.20729345 57.8487903,3.78640026 C58.291561,4.27843373 58.5127164,5.08236482 58.5127164,6.19727212 L58.5127164,6.19727212 L58.5127164,11.0425118 L56.6814023,11.0425118 L56.6814023,6.62757106 C56.6814023,5.84805736 56.5738132,5.30995334 56.3577153,5.01233759 C56.1471349,4.70919337 55.7636762,4.55762126 55.2073392,4.55762126 C54.6022653,4.55762126 54.1737479,4.75756745 53.9194882,5.15838123 C53.6707458,5.55320584 53.5470642,6.24334267 53.5470642,7.22787032 L53.5470642,7.22787032 L53.5470642,11.0425118 L51.7162099,11.0425118 L51.7162099,3.13680551 L53.5470642,3.13680551 L53.5470642,3.86748443 C54.1843229,3.23447508 54.9025034,2.9179704 55.7016055,2.9179704 Z M3.96930326,4.57010638 C3.30031957,4.57010638 2.75639674,4.80276266 2.34075326,5.26807521 C1.92510978,5.73338776 1.71728804,6.34520466 1.71728804,7.1026045 C1.71728804,7.84387964 1.92510978,8.45569654 2.34075326,8.93667308 C2.75179891,9.40751409 3.2915837,9.6429346 3.96148696,9.6429346 C4.59322826,9.6429346 5.11370217,9.40521057 5.52474783,8.92884108 C5.9459087,8.4524716 6.15648913,7.8572401 6.15648913,7.14314658 C6.15648913,6.38574674 5.95142609,5.76886208 5.54084022,5.2924926 C5.12473696,4.81105536 4.60104457,4.57010638 3.96930326,4.57010638 Z M34.6526201,4.57006031 C34.0259364,4.57006031 33.502244,4.80824505 33.0806234,5.28461454 C32.6649799,5.76605178 32.4571582,6.36128328 32.4571582,7.07030904 C32.4571582,7.82770888 32.6594625,8.44459354 33.064531,8.92096302 C33.4806342,9.40240026 34.0043266,9.64288853 34.6360679,9.64288853 C35.3114886,9.64288853 35.8567908,9.41069296 36.2724342,8.94538041 C36.6885375,8.46348246 36.8963592,7.85212627 36.8963592,7.11039042 C36.8963592,6.36911527 36.6885375,5.75775908 36.2724342,5.27632184 C35.8567908,4.80548082 35.317006,4.57006031 34.6526201,4.57006031 Z M13.4504032,4.52613815 C12.8237195,4.52613815 12.3000271,4.76478359 11.8784064,5.24069237 C11.4627629,5.72259032 11.2544814,6.31736112 11.2544814,7.02638687 C11.2544814,7.78378671 11.4577053,8.40113208 11.862314,8.87704085 C12.2784173,9.3584781 12.8021097,9.59942707 13.433851,9.59942707 C14.1088118,9.59942707 14.6545738,9.3667708 15.0702173,8.90145824 C15.4858608,8.4195603 15.6936825,7.8082041 15.6936825,7.06692896 C15.6936825,6.32565381 15.4858608,5.71429762 15.0702173,5.23239967 C14.6545738,4.76155865 14.114789,4.52613815 13.4504032,4.52613815 Z M20.8019905,2.08721929e-14 C21.1316547,2.08721929e-14 21.4130416,0.116558491 21.6447721,0.349214766 C21.8774221,0.576342576 21.9932873,0.855069401 21.9932873,1.18539524 C21.9932873,1.51526038 21.8774221,1.79675144 21.6447721,2.02940771 C21.4180992,2.26206399 21.1399308,2.37862248 20.8102666,2.37862248 C20.4815221,2.37862248 20.2001351,2.26206399 19.9674851,2.02940771 C19.7357547,1.79675144 19.6198895,1.51295685 19.6198895,1.17710254 C19.6198895,0.857833634 19.7357547,0.581871042 19.9674851,0.349214766 C20.2001351,0.116558491 20.4783036,2.08721929e-14 20.8019905,2.08721929e-14 Z" id="Combined-Shape" fill="#002365"></path>
            </g>
        </g>
    </g>
</svg>