<?xml version="1.0" encoding="UTF-8"?>
<svg width="40px" height="40px" viewBox="0 0 40 40" version="1.1" xmlns="http://www.w3.org/2000/svg" xmlns:xlink="http://www.w3.org/1999/xlink">
    <title>38CC6432-05E2-4058-84BD-4DC82ADE6FD4</title>
    <g id="Mobile" stroke="none" stroke-width="1" fill="none" fill-rule="evenodd">
        <g id="Landing---New-2" transform="translate(-16.000000, -1375.000000)" fill="#1996FF">
            <g id="Features" transform="translate(0.000000, 671.000000)">
                <g transform="translate(-103.000000, 40.000000)" id="Eligible-for-Life">
                    <g transform="translate(119.000000, 593.000000)">
                        <g id="Group-17" transform="translate(0.000000, 71.000000)">
                            <rect id="Rectangle" opacity="0.100000001" x="0" y="0" width="40" height="40" rx="8"></rect>
                            <g id="check-(1)" transform="translate(8.000000, 8.000000)" fill-rule="nonzero">
                                <path d="M12,0 C5.3832,0 0,5.3832 0,12 C0,18.6168 5.3832,24 12,24 C18.6168,24 24,18.6168 24,12 C24,5.3832 18.6168,0 12,0 Z M12,21.8181818 C6.58618182,21.8181818 2.18181818,17.4137455 2.18181818,12 C2.18181818,6.58625455 6.58618182,2.18181818 12,2.18181818 C17.4138182,2.18181818 21.8181818,6.58625455 21.8181818,12 C21.8181818,17.4137455 17.4137455,21.8181818 12,21.8181818 Z" id="Shape"></path>
                                <path d="M16.4997818,7.75738182 L10.3285818,13.9285091 L7.50021818,11.1000727 C7.07425455,10.6741091 6.38349091,10.6740364 5.95745455,11.1 C5.53141818,11.5260364 5.53141818,12.2167273 5.95745455,12.6427636 L9.55716364,16.2426182 C9.76174545,16.4472 10.0392,16.5621818 10.3285091,16.5621818 C10.3285818,16.5621818 10.3285091,16.5621818 10.3285818,16.5621818 C10.6178909,16.5621818 10.8953455,16.4472 11.0999273,16.2426909 L18.0425455,9.30021818 C18.4685818,8.87418182 18.4685818,8.18349091 18.0425455,7.75745455 C17.6165091,7.33141818 16.9258182,7.33134545 16.4997818,7.75738182 Z" id="Path"></path>
                            </g>
                        </g>
                    </g>
                </g>
            </g>
        </g>
    </g>
</svg>