<?xml version="1.0" encoding="UTF-8"?>
<svg width="36px" height="36px" viewBox="0 0 36 36" version="1.1" xmlns="http://www.w3.org/2000/svg" xmlns:xlink="http://www.w3.org/1999/xlink">
    <title>7E79FE37-98B5-402B-9C9F-676269350DC4</title>
    <defs>
        <linearGradient x1="6.47008434%" y1="0%" x2="97.1636272%" y2="93.465637%" id="linearGradient-1">
            <stop stop-color="#FC6076" offset="0%"></stop>
            <stop stop-color="#FF9944" offset="100%"></stop>
        </linearGradient>
    </defs>
    <g id="Mobile" stroke="none" stroke-width="1" fill="none" fill-rule="evenodd">
        <g id="Landing---New-2" transform="translate(-46.000000, -220.000000)">
            <g id="Group-2" transform="translate(32.000000, 220.000000)">
                <g id="cc-from-top-banks" transform="translate(14.000000, 0.000000)">
                    <rect id="Rectangle" fill="#FFF2EA" x="0" y="0" width="36" height="36" rx="6"></rect>
                    <g id="pay" transform="translate(5.909091, 5.284091)" fill="url(#linearGradient-1)">
                        <path d="M12.0909091,0.715909091 C18.7163058,0.715909091 24.0909091,6.08660426 24.0909091,12.7159091 C24.0909091,19.3457835 18.7165906,24.7159091 12.0909091,24.7159091 C5.46579043,24.7159091 0.0909090909,19.3455026 0.0909090909,12.7159091 C0.0909090909,6.08688519 5.46607533,0.715909091 12.0909091,0.715909091 Z M12.0909091,2.48061497 C6.42670069,2.48061497 1.83791794,7.0658206 1.83791794,12.7159091 C1.83791794,18.366546 6.4263953,22.9512032 12.0909091,22.9512032 C17.7559655,22.9512032 22.3439002,18.3668478 22.3439002,12.7159091 C22.3439002,7.06551871 17.7556601,2.48061497 12.0909091,2.48061497 Z M14.9331178,7.08422029 C15.415541,7.08422029 15.8066222,7.47926315 15.8066222,7.96657323 C15.8066222,8.39973774 15.4976198,8.75999976 15.0901313,8.83471028 L14.9331178,8.84892617 L13.6997481,8.84851111 C13.8638645,9.14889601 13.9926394,9.47718007 14.0799923,9.82486254 L14.9331178,9.82606089 C15.415541,9.82606089 15.8066222,10.2211038 15.8066222,10.7084138 C15.8066222,11.1415783 15.4976198,11.5018404 15.0901313,11.5765509 L14.9331178,11.5907668 L14.15449,11.5912409 C13.9067565,13.0380261 12.8764377,14.0049645 11.4823988,14.2057942 L11.3589347,14.2182468 L14.0022046,16.8352784 C14.3035825,17.1338344 14.3453801,17.5988691 14.1248308,17.9435427 L14.0142396,18.0830546 C13.7186776,18.3874855 13.2583064,18.4297065 12.9170893,18.2069231 L12.7789764,18.0952115 L8.63725517,13.9922704 C8.11594528,13.4758416 8.41904404,12.6060149 9.09782865,12.4923332 L9.24886926,12.4799508 L10.930045,12.4799508 C11.6407307,12.4799508 12.1443919,12.1740191 12.3549675,11.5919193 L9.24870039,11.5907668 C8.76627721,11.5907668 8.37519596,11.1957239 8.37519596,10.7084138 C8.37519596,10.2752493 8.68419843,9.9149873 9.09168686,9.84027678 L9.24870039,9.82606089 L12.2348799,9.82504798 C11.9874299,9.29622504 11.5662655,8.9345867 11.1016209,8.86225834 L10.930045,8.84892617 L9.24870039,8.84892617 C8.76627721,8.84892617 8.37519596,8.4538833 8.37519596,7.96657323 C8.37519596,7.53340872 8.68419843,7.17314669 9.09168686,7.09843617 L9.24870039,7.08422029 L14.9331178,7.08422029 Z" id="Combined-Shape"></path>
                    </g>
                </g>
            </g>
        </g>
    </g>
</svg>