<?xml version="1.0" encoding="UTF-8"?>
<svg width="36px" height="36px" viewBox="0 0 36 36" version="1.1" xmlns="http://www.w3.org/2000/svg" xmlns:xlink="http://www.w3.org/1999/xlink">
    <title>94B7DB10-1965-42D7-AF3B-E38096DC062E</title>
    <defs>
        <linearGradient x1="0%" y1="1.72254642e-14%" x2="100%" y2="100%" id="linearGradient-1">
            <stop stop-color="#3544DC" offset="0%"></stop>
            <stop stop-color="#EF33F2" offset="100%"></stop>
        </linearGradient>
    </defs>
    <g id="Mobile" stroke="none" stroke-width="1" fill="none" fill-rule="evenodd">
        <g id="Landing---New-2" transform="translate(-46.000000, -427.000000)">
            <g id="Group-2" transform="translate(32.000000, 220.000000)">
                <g id="Group-20" transform="translate(14.000000, 0.000000)">
                    <g id="cc-from-top-banks" transform="translate(0.000000, 207.000000)">
                        <rect id="Rectangle" fill="#FDEAFD" x="0" y="0" width="36" height="36" rx="6"></rect>
                        <path d="M17.9999999,20.0024547 C18.5522847,20.0024547 18.9999999,20.4502484 18.9999999,21.00263 L18.9999999,21.00263 L18.9999999,26.5886093 L20.2949999,25.2983831 C20.6917602,24.9585467 21.2831941,24.9813953 21.6525631,25.3508291 C22.0219322,25.7202629 22.0447767,26.3118005 21.7049999,26.7086303 L21.7049999,26.7086303 L18.7049999,29.7091563 C18.3149625,30.0969479 17.6850374,30.0969479 17.2949999,29.7091563 L17.2949999,29.7091563 L14.2949999,26.7086303 C13.9552231,26.3118005 13.9780677,25.7202629 14.3474367,25.3508291 C14.7168058,24.9813953 15.3082396,24.9585467 15.7049999,25.2983831 L15.7049999,25.2983831 L16.9999999,26.5886093 L16.9999999,21.00263 C16.9999999,20.4502484 17.4477152,20.0024547 17.9999999,20.0024547 Z M26.5,6 C28.4329965,6 30,7.56727816 30,9.50061367 C30,11.4339492 28.4329965,13.0012273 26.5,13.0012273 L26.5,13.0012273 L26.0949999,13.0012273 L27.4349999,19.3723442 C27.6253782,20.2588469 27.4047409,21.1839102 26.8347526,21.8889938 C26.2647642,22.5940774 25.4065621,23.0035537 24.5,23.0031018 L24.5,23.0031018 L22,23.0031018 C21.4477152,23.0031018 21,22.5551869 21,22.0028054 C21,21.4504238 21.4477152,21.00263 22,21.00263 L22,21.00263 L24.5199999,21.00263 C24.8225883,21.0036591 25.1093699,20.8675978 25.2999999,20.6325652 C25.4903478,20.3972169 25.5638845,20.0883082 25.5,19.7924179 L25.5,19.7924179 L23,8.21038749 C22.9926296,8.14056926 22.9926296,8.0701689 23,8.00035067 L23,8.00035067 L13,8.00035067 C13.0140519,8.06946187 13.0207558,8.13986577 13.0199999,8.21038749 L13.0199999,8.21038749 L10.5199999,19.7924179 C10.4561153,20.0883082 10.5296521,20.3972169 10.7199999,20.6325652 C10.91063,20.8675978 11.1974115,21.0036591 11.5,21.00263 L11.5,21.00263 L14,21.00263 C14.5522847,21.00263 15,21.4504238 15,22.0028054 C15,22.5551869 14.5522847,23.0031018 14,23.0031018 L14,23.0031018 L11.5,23.0031018 C10.5890664,23.0111571 9.72376531,22.6049102 9.14807033,21.8987821 C8.57237535,21.192654 8.34865949,20.2631494 8.53999993,19.3723442 L8.53999993,19.3723442 L9.90499993,13.0012273 L9.5,13.0012273 C7.56700333,13.0012273 6,11.4339492 6,9.50061367 C6,7.56727816 7.56700333,6 9.5,6 L9.5,6 Z M17.9999999,11.0008767 C20.2049999,11.0008767 21.9999999,12.571152 21.9999999,14.5014903 C21.9999999,16.4318287 20.2049999,18.002104 17.9999999,18.002104 C15.7949999,18.002104 13.9999999,16.4318287 13.9999999,14.5014903 C13.9999999,12.571152 15.7949999,11.0008767 17.9999999,11.0008767 Z M17.9999999,13.0012273 C16.9149999,13.0012273 15.9999999,13.6863475 15.9999999,14.5014903 C15.9999999,15.3166332 16.9149999,16.0017534 17.9999999,16.0017534 C19.0849999,16.0017534 19.9999999,15.3166332 19.9999999,14.5014903 C19.9999999,13.6863475 19.0849999,13.0012273 17.9999999,13.0012273 Z M26.5249999,8.00035067 L25.0249999,8.00035067 L25.6649999,11.0008767 L26.4999999,11.0008767 C27.3284271,11.0008767 27.9999999,10.329186 27.9999999,9.50061367 C28.0001137,8.6817087 27.3436476,8.01399908 26.5249999,8.00035067 L26.5249999,8.00035067 Z M10.9999999,8.00035067 L9.49999993,8.00035067 C8.6715728,8.00035067 7.99999993,8.6720413 7.99999993,9.50061367 C7.99999993,10.329186 8.6715728,11.0008767 9.49999993,11.0008767 L9.49999993,11.0008767 L10.3599999,11.0008767 L10.9999999,8.00035067 Z" id="Combined-Shape" fill="url(#linearGradient-1)"></path>
                    </g>
                </g>
            </g>
        </g>
    </g>
</svg>